<?xml version="1.0" encoding="UTF-8"?>
<svg xmlns="http://www.w3.org/2000/svg" xmlns:xlink="http://www.w3.org/1999/xlink" stroke-dasharray="none" shape-rendering="auto" font-family="'Dialog'" width="783" text-rendering="auto" fill-opacity="1" contentScriptType="text/ecmascript" color-interpolation="auto" color-rendering="auto" preserveAspectRatio="xMidYMid meet" font-size="12" viewBox="0 0 783 1270" fill="black" stroke="black" image-rendering="auto" stroke-miterlimit="10" zoomAndPan="magnify" version="1.0" stroke-linecap="square" stroke-linejoin="miter" contentStyleType="text/css" font-style="normal" height="1270" stroke-width="1" stroke-dashoffset="0" font-weight="normal" stroke-opacity="1">
  <!--Generated by the Batik Graphics2D SVG Generator-->
  <defs id="genericDefs" />
  <g>
    <defs id="defs1">
      <clipPath clipPathUnits="userSpaceOnUse" id="clipPath1">
        <path d="M9 9 L81 9 L81 41 L9 41 L9 9 Z" />
      </clipPath>
      <clipPath clipPathUnits="userSpaceOnUse" id="clipPath2">
        <path d="M9 9 L84 9 L84 41 L9 41 L9 9 Z" />
      </clipPath>
      <clipPath clipPathUnits="userSpaceOnUse" id="clipPath3">
        <path d="M39 39 L51 39 L51 1261 L39 1261 L39 39 Z" />
      </clipPath>
      <clipPath clipPathUnits="userSpaceOnUse" id="clipPath4">
        <path d="M109 9 L231 9 L231 61 L109 61 L109 9 Z" />
      </clipPath>
      <clipPath clipPathUnits="userSpaceOnUse" id="clipPath5">
        <path d="M109 9 L233 9 L233 61 L109 61 L109 9 Z" />
      </clipPath>
      <clipPath clipPathUnits="userSpaceOnUse" id="clipPath6">
        <path d="M164 59 L176 59 L176 1261 L164 1261 L164 59 Z" />
      </clipPath>
      <clipPath clipPathUnits="userSpaceOnUse" id="clipPath7">
        <path d="M239 9 L360 9 L360 61 L239 61 L239 9 Z" />
      </clipPath>
      <clipPath clipPathUnits="userSpaceOnUse" id="clipPath8">
        <path d="M239 9 L362 9 L362 61 L239 61 L239 9 Z" />
      </clipPath>
      <clipPath clipPathUnits="userSpaceOnUse" id="clipPath9">
        <path d="M293 59 L305 59 L305 1261 L293 1261 L293 59 Z" />
      </clipPath>
      <clipPath clipPathUnits="userSpaceOnUse" id="clipPath10">
        <path d="M288 509 L310 509 L310 551 L288 551 L288 509 Z" />
      </clipPath>
      <clipPath clipPathUnits="userSpaceOnUse" id="clipPath11">
        <path d="M309 509 L346 509 L346 526 L309 526 L309 509 Z" />
      </clipPath>
      <clipPath clipPathUnits="userSpaceOnUse" id="clipPath12">
        <path d="M288 809 L310 809 L310 851 L288 851 L288 809 Z" />
      </clipPath>
      <clipPath clipPathUnits="userSpaceOnUse" id="clipPath13">
        <path d="M309 809 L346 809 L346 826 L309 826 L309 809 Z" />
      </clipPath>
      <clipPath clipPathUnits="userSpaceOnUse" id="clipPath14">
        <path d="M368 9 L500 9 L500 61 L368 61 L368 9 Z" />
      </clipPath>
      <clipPath clipPathUnits="userSpaceOnUse" id="clipPath15">
        <path d="M368 9 L502 9 L502 61 L368 61 L368 9 Z" />
      </clipPath>
      <clipPath clipPathUnits="userSpaceOnUse" id="clipPath16">
        <path d="M428 59 L440 59 L440 1261 L428 1261 L428 59 Z" />
      </clipPath>
      <clipPath clipPathUnits="userSpaceOnUse" id="clipPath17">
        <path d="M508 9 L642 9 L642 61 L508 61 L508 9 Z" />
      </clipPath>
      <clipPath clipPathUnits="userSpaceOnUse" id="clipPath18">
        <path d="M508 9 L645 9 L645 61 L508 61 L508 9 Z" />
      </clipPath>
      <clipPath clipPathUnits="userSpaceOnUse" id="clipPath19">
        <path d="M508 9 L644 9 L644 61 L508 61 L508 9 Z" />
      </clipPath>
      <clipPath clipPathUnits="userSpaceOnUse" id="clipPath20">
        <path d="M569 59 L581 59 L581 1261 L569 1261 L569 59 Z" />
      </clipPath>
      <clipPath clipPathUnits="userSpaceOnUse" id="clipPath21">
        <path d="M564 689 L586 689 L586 731 L564 731 L564 689 Z" />
      </clipPath>
      <clipPath clipPathUnits="userSpaceOnUse" id="clipPath22">
        <path d="M585 689 L622 689 L622 706 L585 706 L585 689 Z" />
      </clipPath>
      <clipPath clipPathUnits="userSpaceOnUse" id="clipPath23">
        <path d="M564 389 L586 389 L586 431 L564 431 L564 389 Z" />
      </clipPath>
      <clipPath clipPathUnits="userSpaceOnUse" id="clipPath24">
        <path d="M585 389 L614 389 L614 406 L585 406 L585 389 Z" />
      </clipPath>
      <clipPath clipPathUnits="userSpaceOnUse" id="clipPath25">
        <path d="M564 749 L586 749 L586 791 L564 791 L564 749 Z" />
      </clipPath>
      <clipPath clipPathUnits="userSpaceOnUse" id="clipPath26">
        <path d="M585 749 L614 749 L614 766 L585 766 L585 749 Z" />
      </clipPath>
      <clipPath clipPathUnits="userSpaceOnUse" id="clipPath27">
        <path d="M650 9 L774 9 L774 61 L650 61 L650 9 Z" />
      </clipPath>
      <clipPath clipPathUnits="userSpaceOnUse" id="clipPath28">
        <path d="M650 9 L776 9 L776 61 L650 61 L650 9 Z" />
      </clipPath>
      <clipPath clipPathUnits="userSpaceOnUse" id="clipPath29">
        <path d="M706 59 L718 59 L718 1261 L706 1261 L706 59 Z" />
      </clipPath>
      <clipPath clipPathUnits="userSpaceOnUse" id="clipPath30">
        <path d="M701 98 L723 98 L723 140 L701 140 L701 98 Z" />
      </clipPath>
      <clipPath clipPathUnits="userSpaceOnUse" id="clipPath31">
        <path d="M722 98 L759 98 L759 115 L722 115 L722 98 Z" />
      </clipPath>
      <clipPath clipPathUnits="userSpaceOnUse" id="clipPath32">
        <path d="M701 209 L723 209 L723 251 L701 251 L701 209 Z" />
      </clipPath>
      <clipPath clipPathUnits="userSpaceOnUse" id="clipPath33">
        <path d="M722 209 L759 209 L759 226 L722 226 L722 209 Z" />
      </clipPath>
      <clipPath clipPathUnits="userSpaceOnUse" id="clipPath34">
        <path d="M701 329 L723 329 L723 371 L701 371 L701 329 Z" />
      </clipPath>
      <clipPath clipPathUnits="userSpaceOnUse" id="clipPath35">
        <path d="M722 329 L759 329 L759 346 L722 346 L722 329 Z" />
      </clipPath>
      <clipPath clipPathUnits="userSpaceOnUse" id="clipPath36">
        <path d="M701 569 L723 569 L723 611 L701 611 L701 569 Z" />
      </clipPath>
      <clipPath clipPathUnits="userSpaceOnUse" id="clipPath37">
        <path d="M722 569 L759 569 L759 586 L722 586 L722 569 Z" />
      </clipPath>
      <clipPath clipPathUnits="userSpaceOnUse" id="clipPath38">
        <path d="M701 869 L723 869 L723 911 L701 911 L701 869 Z" />
      </clipPath>
      <clipPath clipPathUnits="userSpaceOnUse" id="clipPath39">
        <path d="M722 869 L759 869 L759 886 L722 886 L722 869 Z" />
      </clipPath>
      <clipPath clipPathUnits="userSpaceOnUse" id="clipPath40">
        <path d="M701 989 L723 989 L723 1031 L701 1031 L701 989 Z" />
      </clipPath>
      <clipPath clipPathUnits="userSpaceOnUse" id="clipPath41">
        <path d="M722 989 L759 989 L759 1006 L722 1006 L722 989 Z" />
      </clipPath>
      <clipPath clipPathUnits="userSpaceOnUse" id="clipPath42">
        <path d="M701 1109 L723 1109 L723 1151 L701 1151 L701 1109 Z" />
      </clipPath>
      <clipPath clipPathUnits="userSpaceOnUse" id="clipPath43">
        <path d="M722 1109 L759 1109 L759 1126 L722 1126 L722 1109 Z" />
      </clipPath>
      <clipPath clipPathUnits="userSpaceOnUse" id="clipPath44">
        <path d="M701 149 L723 149 L723 191 L701 191 L701 149 Z" />
      </clipPath>
      <clipPath clipPathUnits="userSpaceOnUse" id="clipPath45">
        <path d="M722 149 L751 149 L751 166 L722 166 L722 149 Z" />
      </clipPath>
      <clipPath clipPathUnits="userSpaceOnUse" id="clipPath46">
        <path d="M701 262 L723 262 L723 304 L701 304 L701 262 Z" />
      </clipPath>
      <clipPath clipPathUnits="userSpaceOnUse" id="clipPath47">
        <path d="M722 262 L751 262 L751 279 L722 279 L722 262 Z" />
      </clipPath>
      <clipPath clipPathUnits="userSpaceOnUse" id="clipPath48">
        <path d="M701 449 L723 449 L723 491 L701 491 L701 449 Z" />
      </clipPath>
      <clipPath clipPathUnits="userSpaceOnUse" id="clipPath49">
        <path d="M722 449 L751 449 L751 466 L722 466 L722 449 Z" />
      </clipPath>
      <clipPath clipPathUnits="userSpaceOnUse" id="clipPath50">
        <path d="M701 629 L723 629 L723 671 L701 671 L701 629 Z" />
      </clipPath>
      <clipPath clipPathUnits="userSpaceOnUse" id="clipPath51">
        <path d="M722 629 L751 629 L751 646 L722 646 L722 629 Z" />
      </clipPath>
      <clipPath clipPathUnits="userSpaceOnUse" id="clipPath52">
        <path d="M701 929 L723 929 L723 971 L701 971 L701 929 Z" />
      </clipPath>
      <clipPath clipPathUnits="userSpaceOnUse" id="clipPath53">
        <path d="M722 929 L751 929 L751 946 L722 946 L722 929 Z" />
      </clipPath>
      <clipPath clipPathUnits="userSpaceOnUse" id="clipPath54">
        <path d="M701 1049 L723 1049 L723 1091 L701 1091 L701 1049 Z" />
      </clipPath>
      <clipPath clipPathUnits="userSpaceOnUse" id="clipPath55">
        <path d="M722 1049 L751 1049 L751 1066 L722 1066 L722 1049 Z" />
      </clipPath>
      <clipPath clipPathUnits="userSpaceOnUse" id="clipPath56">
        <path d="M701 1169 L723 1169 L723 1211 L701 1211 L701 1169 Z" />
      </clipPath>
      <clipPath clipPathUnits="userSpaceOnUse" id="clipPath57">
        <path d="M722 1169 L751 1169 L751 1186 L722 1186 L722 1169 Z" />
      </clipPath>
      <clipPath clipPathUnits="userSpaceOnUse" id="clipPath58">
        <path d="M-1 -1 L784 -1 L784 1271 L-1 1271 L-1 -1 Z" />
      </clipPath>
      <clipPath clipPathUnits="userSpaceOnUse" id="clipPath59">
        <path d="M90 75 L304 75 L304 92 L90 92 L90 75 Z" />
      </clipPath>
      <clipPath clipPathUnits="userSpaceOnUse" id="clipPath60">
        <path d="M43 93 L55 93 L55 104 L43 104 L43 93 Z" />
      </clipPath>
      <clipPath clipPathUnits="userSpaceOnUse" id="clipPath61">
        <path d="M96 186 L180 186 L180 203 L96 203 L96 186 Z" />
      </clipPath>
      <clipPath clipPathUnits="userSpaceOnUse" id="clipPath62">
        <path d="M43 204 L55 204 L55 215 L43 215 L43 204 Z" />
      </clipPath>
      <clipPath clipPathUnits="userSpaceOnUse" id="clipPath63">
        <path d="M107 305 L154 305 L154 322 L107 322 L107 305 Z" />
      </clipPath>
      <clipPath clipPathUnits="userSpaceOnUse" id="clipPath64">
        <path d="M43 324 L55 324 L55 335 L43 335 L43 324 Z" />
      </clipPath>
      <clipPath clipPathUnits="userSpaceOnUse" id="clipPath65">
        <path d="M101 487 L263 487 L263 504 L101 504 L101 487 Z" />
      </clipPath>
      <clipPath clipPathUnits="userSpaceOnUse" id="clipPath66">
        <path d="M43 504 L55 504 L55 515 L43 515 L43 504 Z" />
      </clipPath>
      <clipPath clipPathUnits="userSpaceOnUse" id="clipPath67">
        <path d="M94 546 L141 546 L141 563 L94 563 L94 546 Z" />
      </clipPath>
      <clipPath clipPathUnits="userSpaceOnUse" id="clipPath68">
        <path d="M43 564 L55 564 L55 575 L43 575 L43 564 Z" />
      </clipPath>
      <clipPath clipPathUnits="userSpaceOnUse" id="clipPath69">
        <path d="M49 635 L552 635 L552 693 L49 693 L49 635 Z" />
      </clipPath>
      <clipPath clipPathUnits="userSpaceOnUse" id="clipPath70">
        <path d="M43 684 L55 684 L55 695 L43 695 L43 684 Z" />
      </clipPath>
      <clipPath clipPathUnits="userSpaceOnUse" id="clipPath71">
        <path d="M102 786 L264 786 L264 803 L102 803 L102 786 Z" />
      </clipPath>
      <clipPath clipPathUnits="userSpaceOnUse" id="clipPath72">
        <path d="M43 804 L55 804 L55 815 L43 815 L43 804 Z" />
      </clipPath>
      <clipPath clipPathUnits="userSpaceOnUse" id="clipPath73">
        <path d="M108 846 L201 846 L201 863 L108 863 L108 846 Z" />
      </clipPath>
      <clipPath clipPathUnits="userSpaceOnUse" id="clipPath74">
        <path d="M43 864 L55 864 L55 875 L43 875 L43 864 Z" />
      </clipPath>
      <clipPath clipPathUnits="userSpaceOnUse" id="clipPath75">
        <path d="M154 971 L595 971 L595 988 L154 988 L154 971 Z" />
      </clipPath>
      <clipPath clipPathUnits="userSpaceOnUse" id="clipPath76">
        <path d="M43 984 L55 984 L55 995 L43 995 L43 984 Z" />
      </clipPath>
      <clipPath clipPathUnits="userSpaceOnUse" id="clipPath77">
        <path d="M88 1086 L135 1086 L135 1103 L88 1103 L88 1086 Z" />
      </clipPath>
      <clipPath clipPathUnits="userSpaceOnUse" id="clipPath78">
        <path d="M43 1104 L55 1104 L55 1115 L43 1115 L43 1104 Z" />
      </clipPath>
      <clipPath clipPathUnits="userSpaceOnUse" id="clipPath79">
        <path d="M78 127 L295 127 L295 144 L78 144 L78 127 Z" />
      </clipPath>
      <clipPath clipPathUnits="userSpaceOnUse" id="clipPath80">
        <path d="M693 144 L705 144 L705 155 L693 155 L693 144 Z" />
      </clipPath>
      <clipPath clipPathUnits="userSpaceOnUse" id="clipPath81">
        <path d="M76 241 L278 241 L278 258 L76 258 L76 241 Z" />
      </clipPath>
      <clipPath clipPathUnits="userSpaceOnUse" id="clipPath82">
        <path d="M693 257 L705 257 L705 268 L693 268 L693 257 Z" />
      </clipPath>
      <clipPath clipPathUnits="userSpaceOnUse" id="clipPath83">
        <path d="M116 367 L596 367 L596 384 L116 384 L116 367 Z" />
      </clipPath>
      <clipPath clipPathUnits="userSpaceOnUse" id="clipPath84">
        <path d="M556 384 L568 384 L568 395 L556 395 L556 384 Z" />
      </clipPath>
      <clipPath clipPathUnits="userSpaceOnUse" id="clipPath85">
        <path d="M92 425 L411 425 L411 442 L92 442 L92 425 Z" />
      </clipPath>
      <clipPath clipPathUnits="userSpaceOnUse" id="clipPath86">
        <path d="M693 444 L705 444 L705 455 L693 455 L693 444 Z" />
      </clipPath>
      <clipPath clipPathUnits="userSpaceOnUse" id="clipPath87">
        <path d="M87 606 L338 606 L338 623 L87 623 L87 606 Z" />
      </clipPath>
      <clipPath clipPathUnits="userSpaceOnUse" id="clipPath88">
        <path d="M693 624 L705 624 L705 635 L693 635 L693 624 Z" />
      </clipPath>
      <clipPath clipPathUnits="userSpaceOnUse" id="clipPath89">
        <path d="M133 729 L685 729 L685 746 L133 746 L133 729 Z" />
      </clipPath>
      <clipPath clipPathUnits="userSpaceOnUse" id="clipPath90">
        <path d="M556 744 L568 744 L568 755 L556 755 L556 744 Z" />
      </clipPath>
      <clipPath clipPathUnits="userSpaceOnUse" id="clipPath91">
        <path d="M84 907 L343 907 L343 924 L84 924 L84 907 Z" />
      </clipPath>
      <clipPath clipPathUnits="userSpaceOnUse" id="clipPath92">
        <path d="M693 924 L705 924 L705 935 L693 935 L693 924 Z" />
      </clipPath>
      <clipPath clipPathUnits="userSpaceOnUse" id="clipPath93">
        <path d="M84 1026 L362 1026 L362 1043 L84 1043 L84 1026 Z" />
      </clipPath>
      <clipPath clipPathUnits="userSpaceOnUse" id="clipPath94">
        <path d="M693 1044 L705 1044 L705 1055 L693 1055 L693 1044 Z" />
      </clipPath>
      <clipPath clipPathUnits="userSpaceOnUse" id="clipPath95">
        <path d="M78 1145 L278 1145 L278 1162 L78 1162 L78 1145 Z" />
      </clipPath>
      <clipPath clipPathUnits="userSpaceOnUse" id="clipPath96">
        <path d="M693 1164 L705 1164 L705 1175 L693 1175 L693 1164 Z" />
      </clipPath>
    </defs>
    <g font-size="19" fill="rgb(238,201,142)" font-family="'Lucida Sans'" stroke-linejoin="round" stroke="rgb(238,201,142)" stroke-width="0" stroke-miterlimit="0">
      <rect x="10" y="10" clip-path="url(#clipPath1)" width="70" height="30" stroke="none" />
    </g>
    <g stroke-width="0.1" font-size="19" font-family="'Lucida Sans'" stroke-linecap="butt">
      <rect x="10" y="10" clip-path="url(#clipPath1)" fill="none" width="69" height="29" />
      <text x="25" font-size="11" y="30" clip-path="url(#clipPath2)" font-family="'Lucida Sans Unicode'" stroke="none" xml:space="preserve">System</text>
      <line clip-path="url(#clipPath3)" fill="none" x1="44" x2="44" y1="40" y2="1260" stroke-dasharray="10,10" stroke-width="1.1" />
    </g>
    <g stroke-linecap="butt" font-size="19" fill="rgb(255,245,181)" font-family="'Lucida Sans'" stroke-dasharray="10,10" stroke="rgb(255,245,181)" stroke-width="1.1">
      <rect x="110" y="10" clip-path="url(#clipPath4)" width="120" height="50" stroke="none" />
    </g>
    <g stroke-width="0.1" font-size="19" font-family="'Lucida Sans'" stroke-linecap="butt">
      <rect x="110" y="10" clip-path="url(#clipPath4)" fill="none" width="119" height="49" />
      <text x="141" font-size="11" y="33" clip-path="url(#clipPath5)" font-family="'Lucida Sans Unicode'" stroke="none" xml:space="preserve">theCreator</text>
      <text x="157" font-size="11" y="48" clip-path="url(#clipPath5)" font-family="'Lucida Sans Unicode'" stroke="none" xml:space="preserve">: null</text>
      <line clip-path="url(#clipPath6)" fill="none" x1="169" x2="169" y1="60" y2="1260" stroke-dasharray="10,10" stroke-width="1.1" />
    </g>
    <g stroke-linecap="butt" font-size="19" fill="rgb(255,245,181)" font-family="'Lucida Sans'" stroke-dasharray="10,10" stroke="rgb(255,245,181)" stroke-width="1.1">
      <rect x="240" y="10" clip-path="url(#clipPath7)" width="119" height="50" stroke="none" />
    </g>
    <g stroke-width="0.1" font-size="19" font-family="'Lucida Sans'" stroke-linecap="butt">
      <rect x="240" y="10" clip-path="url(#clipPath7)" fill="none" width="118" height="49" />
      <text x="276" font-size="11" y="33" clip-path="url(#clipPath8)" font-family="'Lucida Sans Unicode'" stroke="none" xml:space="preserve">theClock</text>
      <text x="286" font-size="11" y="48" clip-path="url(#clipPath8)" font-family="'Lucida Sans Unicode'" stroke="none" xml:space="preserve">: null</text>
      <line clip-path="url(#clipPath9)" fill="none" x1="298" x2="298" y1="60" y2="1260" stroke-dasharray="10,10" stroke-width="1.1" />
    </g>
    <g stroke-linecap="butt" font-size="19" fill="rgb(39,76,114)" font-family="'Lucida Sans'" stroke-dasharray="10,10" stroke="rgb(39,76,114)" stroke-width="1.1">
      <rect x="289" y="510" clip-path="url(#clipPath10)" width="20" height="40" stroke="none" />
      <rect x="289" y="510" clip-path="url(#clipPath10)" fill="none" width="19" stroke-dasharray="none" height="39" stroke-width="0.1" />
    </g>
    <g stroke-width="0.1" font-size="11" font-family="'Lucida Sans Unicode'" stroke-linecap="butt">
      <text xml:space="preserve" x="310" y="523" clip-path="url(#clipPath11)" stroke="none">out04</text>
    </g>
    <g stroke-linecap="butt" font-size="19" fill="rgb(39,76,114)" font-family="'Lucida Sans'" stroke="rgb(39,76,114)" stroke-width="0.1">
      <rect x="289" y="810" clip-path="url(#clipPath12)" width="20" height="40" stroke="none" />
      <rect x="289" y="810" clip-path="url(#clipPath12)" fill="none" width="19" height="39" />
    </g>
    <g stroke-width="0.1" font-size="11" font-family="'Lucida Sans Unicode'" stroke-linecap="butt">
      <text xml:space="preserve" x="310" y="823" clip-path="url(#clipPath13)" stroke="none">out07</text>
    </g>
    <g stroke-linecap="butt" font-size="19" fill="rgb(255,245,181)" font-family="'Lucida Sans'" stroke="rgb(255,245,181)" stroke-width="0.1">
      <rect x="369" y="10" clip-path="url(#clipPath14)" width="130" height="50" stroke="none" />
      <rect x="369" y="10" clip-path="url(#clipPath14)" fill="none" width="129" height="49" stroke="black" />
    </g>
    <g stroke-width="0.1" font-size="11" font-family="'Lucida Sans Unicode'" stroke-linecap="butt">
      <text xml:space="preserve" x="426" y="33" clip-path="url(#clipPath15)" stroke="none">bill</text>
      <text xml:space="preserve" x="421" y="48" clip-path="url(#clipPath15)" stroke="none">: null</text>
      <line clip-path="url(#clipPath16)" fill="none" x1="433" x2="433" y1="60" y2="1260" stroke-dasharray="10,10" stroke-width="1.1" />
    </g>
    <g stroke-linecap="butt" font-size="19" fill="rgb(255,245,181)" font-family="'Lucida Sans'" stroke-dasharray="10,10" stroke="rgb(255,245,181)" stroke-width="1.1">
      <rect x="509" y="10" clip-path="url(#clipPath17)" width="132" height="50" stroke="none" />
    </g>
    <g stroke-width="0.1" font-size="19" font-family="'Lucida Sans'" stroke-linecap="butt">
      <rect x="509" y="10" clip-path="url(#clipPath17)" fill="none" width="131" height="49" />
      <text x="559" font-size="11" y="33" clip-path="url(#clipPath18)" font-family="'Lucida Sans Unicode'" stroke="none" xml:space="preserve">tango</text>
      <text x="561" font-size="11" y="48" clip-path="url(#clipPath19)" font-family="'Lucida Sans Unicode'" stroke="none" xml:space="preserve">: null</text>
      <line clip-path="url(#clipPath20)" fill="none" x1="574" x2="574" y1="60" y2="1260" stroke-dasharray="10,10" stroke-width="1.1" />
    </g>
    <g stroke-linecap="butt" font-size="19" fill="rgb(39,76,114)" font-family="'Lucida Sans'" stroke-dasharray="10,10" stroke="rgb(39,76,114)" stroke-width="1.1">
      <rect x="565" y="690" clip-path="url(#clipPath21)" width="20" height="40" stroke="none" />
      <rect x="565" y="690" clip-path="url(#clipPath21)" fill="none" width="19" stroke-dasharray="none" height="39" stroke-width="0.1" />
    </g>
    <g stroke-width="0.1" font-size="11" font-family="'Lucida Sans Unicode'" stroke-linecap="butt">
      <text xml:space="preserve" x="586" y="703" clip-path="url(#clipPath22)" stroke="none">out06</text>
    </g>
    <g stroke-linecap="butt" font-size="19" fill="rgb(194,239,255)" font-family="'Lucida Sans'" stroke="rgb(194,239,255)" stroke-width="0.1">
      <rect x="565" y="390" clip-path="url(#clipPath23)" width="20" height="40" stroke="none" />
      <rect x="565" y="390" clip-path="url(#clipPath23)" fill="none" width="19" height="39" />
    </g>
    <g stroke-width="0.1" font-size="11" font-family="'Lucida Sans Unicode'" stroke-linecap="butt">
      <text xml:space="preserve" x="586" y="403" clip-path="url(#clipPath24)" stroke="none">in03</text>
    </g>
    <g stroke-linecap="butt" font-size="19" fill="rgb(194,239,255)" font-family="'Lucida Sans'" stroke="rgb(194,239,255)" stroke-width="0.1">
      <rect x="565" y="750" clip-path="url(#clipPath25)" width="20" height="40" stroke="none" />
      <rect x="565" y="750" clip-path="url(#clipPath25)" fill="none" width="19" height="39" />
    </g>
    <g stroke-width="0.1" font-size="11" font-family="'Lucida Sans Unicode'" stroke-linecap="butt">
      <text xml:space="preserve" x="586" y="763" clip-path="url(#clipPath26)" stroke="none">in06</text>
    </g>
    <g stroke-linecap="butt" font-size="19" fill="rgb(255,245,181)" font-family="'Lucida Sans'" stroke="rgb(255,245,181)" stroke-width="0.1">
      <rect x="651" y="10" clip-path="url(#clipPath27)" width="122" height="50" stroke="none" />
      <rect x="651" y="10" clip-path="url(#clipPath27)" fill="none" width="121" height="49" stroke="black" />
    </g>
    <g stroke-width="0.1" font-size="11" font-family="'Lucida Sans Unicode'" stroke-linecap="butt">
      <text xml:space="preserve" x="698" y="33" clip-path="url(#clipPath28)" stroke="none">steve</text>
      <text xml:space="preserve" x="699" y="48" clip-path="url(#clipPath28)" stroke="none">: null</text>
      <line clip-path="url(#clipPath29)" fill="none" x1="711" x2="711" y1="60" y2="1260" stroke-dasharray="10,10" stroke-width="1.1" />
    </g>
    <g stroke-linecap="butt" font-size="19" fill="rgb(39,76,114)" font-family="'Lucida Sans'" stroke-dasharray="10,10" stroke="rgb(39,76,114)" stroke-width="1.1">
      <rect x="702" y="99" clip-path="url(#clipPath30)" width="20" height="40" stroke="none" />
      <rect x="702" y="99" clip-path="url(#clipPath30)" fill="none" width="19" stroke-dasharray="none" height="39" stroke-width="0.1" />
    </g>
    <g stroke-width="0.1" font-size="11" font-family="'Lucida Sans Unicode'" stroke-linecap="butt">
      <text xml:space="preserve" x="723" y="112" clip-path="url(#clipPath31)" stroke="none">out01</text>
    </g>
    <g stroke-linecap="butt" font-size="19" fill="rgb(39,76,114)" font-family="'Lucida Sans'" stroke="rgb(39,76,114)" stroke-width="0.1">
      <rect x="702" y="210" clip-path="url(#clipPath32)" width="20" height="40" stroke="none" />
      <rect x="702" y="210" clip-path="url(#clipPath32)" fill="none" width="19" height="39" />
    </g>
    <g stroke-width="0.1" font-size="11" font-family="'Lucida Sans Unicode'" stroke-linecap="butt">
      <text xml:space="preserve" x="723" y="223" clip-path="url(#clipPath33)" stroke="none">out02</text>
    </g>
    <g stroke-linecap="butt" font-size="19" fill="rgb(39,76,114)" font-family="'Lucida Sans'" stroke="rgb(39,76,114)" stroke-width="0.1">
      <rect x="702" y="330" clip-path="url(#clipPath34)" width="20" height="40" stroke="none" />
      <rect x="702" y="330" clip-path="url(#clipPath34)" fill="none" width="19" height="39" />
    </g>
    <g stroke-width="0.1" font-size="11" font-family="'Lucida Sans Unicode'" stroke-linecap="butt">
      <text xml:space="preserve" x="723" y="343" clip-path="url(#clipPath35)" stroke="none">out03</text>
    </g>
    <g stroke-linecap="butt" font-size="19" fill="rgb(39,76,114)" font-family="'Lucida Sans'" stroke="rgb(39,76,114)" stroke-width="0.1">
      <rect x="702" y="570" clip-path="url(#clipPath36)" width="20" height="40" stroke="none" />
      <rect x="702" y="570" clip-path="url(#clipPath36)" fill="none" width="19" height="39" />
    </g>
    <g stroke-width="0.1" font-size="11" font-family="'Lucida Sans Unicode'" stroke-linecap="butt">
      <text xml:space="preserve" x="723" y="583" clip-path="url(#clipPath37)" stroke="none">out05</text>
    </g>
    <g stroke-linecap="butt" font-size="19" fill="rgb(39,76,114)" font-family="'Lucida Sans'" stroke="rgb(39,76,114)" stroke-width="0.1">
      <rect x="702" y="870" clip-path="url(#clipPath38)" width="20" height="40" stroke="none" />
      <rect x="702" y="870" clip-path="url(#clipPath38)" fill="none" width="19" height="39" />
    </g>
    <g stroke-width="0.1" font-size="11" font-family="'Lucida Sans Unicode'" stroke-linecap="butt">
      <text xml:space="preserve" x="723" y="883" clip-path="url(#clipPath39)" stroke="none">out08</text>
    </g>
    <g stroke-linecap="butt" font-size="19" fill="rgb(39,76,114)" font-family="'Lucida Sans'" stroke="rgb(39,76,114)" stroke-width="0.1">
      <rect x="702" y="990" clip-path="url(#clipPath40)" width="20" height="40" stroke="none" />
      <rect x="702" y="990" clip-path="url(#clipPath40)" fill="none" width="19" height="39" />
    </g>
    <g stroke-width="0.1" font-size="11" font-family="'Lucida Sans Unicode'" stroke-linecap="butt">
      <text xml:space="preserve" x="723" y="1003" clip-path="url(#clipPath41)" stroke="none">out09</text>
    </g>
    <g stroke-linecap="butt" font-size="19" fill="rgb(39,76,114)" font-family="'Lucida Sans'" stroke="rgb(39,76,114)" stroke-width="0.1">
      <rect x="702" y="1110" clip-path="url(#clipPath42)" width="20" height="40" stroke="none" />
      <rect x="702" y="1110" clip-path="url(#clipPath42)" fill="none" width="19" height="39" />
    </g>
    <g stroke-width="0.1" font-size="11" font-family="'Lucida Sans Unicode'" stroke-linecap="butt">
      <text xml:space="preserve" x="723" y="1123" clip-path="url(#clipPath43)" stroke="none">out10</text>
    </g>
    <g stroke-linecap="butt" font-size="19" fill="rgb(194,239,255)" font-family="'Lucida Sans'" stroke="rgb(194,239,255)" stroke-width="0.1">
      <rect x="702" y="150" clip-path="url(#clipPath44)" width="20" height="40" stroke="none" />
      <rect x="702" y="150" clip-path="url(#clipPath44)" fill="none" width="19" height="39" />
    </g>
    <g stroke-width="0.1" font-size="11" font-family="'Lucida Sans Unicode'" stroke-linecap="butt">
      <text xml:space="preserve" x="723" y="163" clip-path="url(#clipPath45)" stroke="none">in01</text>
    </g>
    <g stroke-linecap="butt" font-size="19" fill="rgb(194,239,255)" font-family="'Lucida Sans'" stroke="rgb(194,239,255)" stroke-width="0.1">
      <rect x="702" y="263" clip-path="url(#clipPath46)" width="20" height="40" stroke="none" />
      <rect x="702" y="263" clip-path="url(#clipPath46)" fill="none" width="19" height="39" />
    </g>
    <g stroke-width="0.1" font-size="11" font-family="'Lucida Sans Unicode'" stroke-linecap="butt">
      <text xml:space="preserve" x="723" y="276" clip-path="url(#clipPath47)" stroke="none">in02</text>
    </g>
    <g stroke-linecap="butt" font-size="19" fill="rgb(194,239,255)" font-family="'Lucida Sans'" stroke="rgb(194,239,255)" stroke-width="0.1">
      <rect x="702" y="450" clip-path="url(#clipPath48)" width="20" height="40" stroke="none" />
      <rect x="702" y="450" clip-path="url(#clipPath48)" fill="none" width="19" height="39" />
    </g>
    <g stroke-width="0.1" font-size="11" font-family="'Lucida Sans Unicode'" stroke-linecap="butt">
      <text xml:space="preserve" x="723" y="463" clip-path="url(#clipPath49)" stroke="none">in04</text>
    </g>
    <g stroke-linecap="butt" font-size="19" fill="rgb(194,239,255)" font-family="'Lucida Sans'" stroke="rgb(194,239,255)" stroke-width="0.1">
      <rect x="702" y="630" clip-path="url(#clipPath50)" width="20" height="40" stroke="none" />
      <rect x="702" y="630" clip-path="url(#clipPath50)" fill="none" width="19" height="39" />
    </g>
    <g stroke-width="0.1" font-size="11" font-family="'Lucida Sans Unicode'" stroke-linecap="butt">
      <text xml:space="preserve" x="723" y="643" clip-path="url(#clipPath51)" stroke="none">in05</text>
    </g>
    <g stroke-linecap="butt" font-size="19" fill="rgb(194,239,255)" font-family="'Lucida Sans'" stroke="rgb(194,239,255)" stroke-width="0.1">
      <rect x="702" y="930" clip-path="url(#clipPath52)" width="20" height="40" stroke="none" />
      <rect x="702" y="930" clip-path="url(#clipPath52)" fill="none" width="19" height="39" />
    </g>
    <g stroke-width="0.1" font-size="11" font-family="'Lucida Sans Unicode'" stroke-linecap="butt">
      <text xml:space="preserve" x="723" y="943" clip-path="url(#clipPath53)" stroke="none">in07</text>
    </g>
    <g stroke-linecap="butt" font-size="19" fill="rgb(194,239,255)" font-family="'Lucida Sans'" stroke="rgb(194,239,255)" stroke-width="0.1">
      <rect x="702" y="1050" clip-path="url(#clipPath54)" width="20" height="40" stroke="none" />
      <rect x="702" y="1050" clip-path="url(#clipPath54)" fill="none" width="19" height="39" />
    </g>
    <g stroke-width="0.1" font-size="11" font-family="'Lucida Sans Unicode'" stroke-linecap="butt">
      <text xml:space="preserve" x="723" y="1063" clip-path="url(#clipPath55)" stroke="none">in08</text>
    </g>
    <g stroke-linecap="butt" font-size="19" fill="rgb(194,239,255)" font-family="'Lucida Sans'" stroke="rgb(194,239,255)" stroke-width="0.1">
      <rect x="702" y="1170" clip-path="url(#clipPath56)" width="20" height="40" stroke="none" />
      <rect x="702" y="1170" clip-path="url(#clipPath56)" fill="none" width="19" height="39" />
    </g>
    <g stroke-width="0.1" font-size="11" font-family="'Lucida Sans Unicode'" stroke-linecap="butt">
      <text xml:space="preserve" x="723" y="1183" clip-path="url(#clipPath57)" stroke="none">in09</text>
      <line clip-path="url(#clipPath58)" fill="none" x1="702" x2="45" y1="98" y2="98" stroke="rgb(136,136,136)" stroke-width="2.1" />
      <text x="91" y="89" clip-path="url(#clipPath59)" stroke="none" stroke-width="2.1" xml:space="preserve">null("steve","pwdMessirExcalibur2017")</text>
      <line clip-path="url(#clipPath60)" fill="none" x1="52" x2="45" y1="95" y2="98" stroke="rgb(136,136,136)" stroke-width="2.1" />
      <line clip-path="url(#clipPath60)" fill="none" x1="45" x2="52" y1="98" y2="101" stroke="rgb(136,136,136)" stroke-width="2.1" />
      <line clip-path="url(#clipPath58)" fill="none" x1="702" x2="45" y1="209" y2="209" stroke="rgb(136,136,136)" stroke-width="2.1" />
      <text x="97" y="200" clip-path="url(#clipPath61)" stroke="none" stroke-width="2.1" xml:space="preserve">null("pending")</text>
      <line clip-path="url(#clipPath62)" fill="none" x1="52" x2="45" y1="206" y2="209" stroke="rgb(136,136,136)" stroke-width="2.1" />
      <line clip-path="url(#clipPath62)" fill="none" x1="45" x2="52" y1="209" y2="212" stroke="rgb(136,136,136)" stroke-width="2.1" />
      <line clip-path="url(#clipPath58)" fill="none" x1="702" x2="45" y1="329" y2="329" stroke="rgb(136,136,136)" stroke-width="2.1" />
      <text x="108" y="319" clip-path="url(#clipPath63)" stroke="none" stroke-width="2.1" xml:space="preserve">null("1")</text>
      <line clip-path="url(#clipPath64)" fill="none" x1="52" x2="45" y1="326" y2="329" stroke="rgb(136,136,136)" stroke-width="2.1" />
      <line clip-path="url(#clipPath64)" fill="none" x1="45" x2="52" y1="329" y2="332" stroke="rgb(136,136,136)" stroke-width="2.1" />
      <line clip-path="url(#clipPath58)" fill="none" x1="289" x2="45" y1="509" y2="509" stroke="rgb(136,136,136)" stroke-width="2.1" />
      <text x="102" y="501" clip-path="url(#clipPath65)" stroke="none" stroke-width="2.1" xml:space="preserve">null("2017:11:26 - 10:45:00")</text>
      <line clip-path="url(#clipPath66)" fill="none" x1="52" x2="45" y1="506" y2="509" stroke="rgb(136,136,136)" stroke-width="2.1" />
      <line clip-path="url(#clipPath66)" fill="none" x1="45" x2="52" y1="509" y2="512" stroke="rgb(136,136,136)" stroke-width="2.1" />
      <line clip-path="url(#clipPath58)" fill="none" x1="702" x2="45" y1="569" y2="569" stroke="rgb(136,136,136)" stroke-width="2.1" />
      <text x="95" y="560" clip-path="url(#clipPath67)" stroke="none" stroke-width="2.1" xml:space="preserve">null("1")</text>
      <line clip-path="url(#clipPath68)" fill="none" x1="52" x2="45" y1="566" y2="569" stroke="rgb(136,136,136)" stroke-width="2.1" />
      <line clip-path="url(#clipPath68)" fill="none" x1="45" x2="52" y1="569" y2="572" stroke="rgb(136,136,136)" stroke-width="2.1" />
      <line clip-path="url(#clipPath58)" fill="none" x1="565" x2="45" y1="689" y2="689" stroke="rgb(136,136,136)" stroke-width="2.1" />
      <text x="60" y="662" clip-path="url(#clipPath69)" stroke="none" stroke-width="2.1" xml:space="preserve">null("witness","2017:11:26","10:20:00","+3524666445000","49.627095:6.160251","A car </text>
      <text x="239" y="677" clip-path="url(#clipPath69)" stroke="none" stroke-width="2.1" xml:space="preserve">crash just happened.")</text>
      <line clip-path="url(#clipPath70)" fill="none" x1="52" x2="45" y1="686" y2="689" stroke="rgb(136,136,136)" stroke-width="2.1" />
      <line clip-path="url(#clipPath70)" fill="none" x1="45" x2="52" y1="689" y2="692" stroke="rgb(136,136,136)" stroke-width="2.1" />
      <line clip-path="url(#clipPath58)" fill="none" x1="289" x2="45" y1="809" y2="809" stroke="rgb(136,136,136)" stroke-width="2.1" />
      <text x="103" y="800" clip-path="url(#clipPath71)" stroke="none" stroke-width="2.1" xml:space="preserve">null("2017:11:26 - 12:45:00")</text>
      <line clip-path="url(#clipPath72)" fill="none" x1="52" x2="45" y1="806" y2="809" stroke="rgb(136,136,136)" stroke-width="2.1" />
      <line clip-path="url(#clipPath72)" fill="none" x1="45" x2="52" y1="809" y2="812" stroke="rgb(136,136,136)" stroke-width="2.1" />
      <line clip-path="url(#clipPath58)" fill="none" x1="702" x2="45" y1="869" y2="869" stroke="rgb(136,136,136)" stroke-width="2.1" />
      <text x="109" y="860" clip-path="url(#clipPath73)" stroke="none" stroke-width="2.1" xml:space="preserve">null("1","solved")</text>
      <line clip-path="url(#clipPath74)" fill="none" x1="52" x2="45" y1="866" y2="869" stroke="rgb(136,136,136)" stroke-width="2.1" />
      <line clip-path="url(#clipPath74)" fill="none" x1="45" x2="52" y1="869" y2="872" stroke="rgb(136,136,136)" stroke-width="2.1" />
      <line clip-path="url(#clipPath58)" fill="none" x1="702" x2="45" y1="989" y2="989" stroke="rgb(136,136,136)" stroke-width="2.1" />
      <text x="155" y="985" clip-path="url(#clipPath75)" stroke="none" stroke-width="2.1" xml:space="preserve">null("1","3 victims sent to hospital, 2 cars evacuated and 4 rescue unit mobilized")</text>
      <line clip-path="url(#clipPath76)" fill="none" x1="52" x2="45" y1="986" y2="989" stroke="rgb(136,136,136)" stroke-width="2.1" />
      <line clip-path="url(#clipPath76)" fill="none" x1="45" x2="52" y1="989" y2="992" stroke="rgb(136,136,136)" stroke-width="2.1" />
      <line clip-path="url(#clipPath58)" fill="none" x1="702" x2="45" y1="1109" y2="1109" stroke="rgb(136,136,136)" stroke-width="2.1" />
      <text x="89" y="1100" clip-path="url(#clipPath77)" stroke="none" stroke-width="2.1" xml:space="preserve">null("1")</text>
      <line clip-path="url(#clipPath78)" fill="none" x1="52" x2="45" y1="1106" y2="1109" stroke="rgb(136,136,136)" stroke-width="2.1" />
      <line clip-path="url(#clipPath78)" fill="none" x1="45" x2="52" y1="1109" y2="1112" stroke="rgb(136,136,136)" stroke-width="2.1" />
    </g>
    <g stroke-linecap="butt" font-size="11" fill="rgb(136,136,136)" font-family="'Lucida Sans Unicode'" stroke-dasharray="5,5" stroke="rgb(136,136,136)" stroke-width="2.1">
      <line clip-path="url(#clipPath58)" fill="none" x1="702" x2="45" y1="149" y2="149" />
      <text x="79" y="141" clip-path="url(#clipPath79)" fill="black" stroke="none" xml:space="preserve">ieMessage(You are logged ! Welcome ...)</text>
      <line clip-path="url(#clipPath80)" fill="none" x1="695" x2="702" y1="152" y2="149" stroke-dasharray="none" />
      <line clip-path="url(#clipPath80)" fill="none" x1="702" x2="695" y1="149" y2="146" stroke-dasharray="none" />
      <line clip-path="url(#clipPath58)" fill="none" x1="702" x2="45" y1="262" y2="262" />
      <text x="77" y="255" clip-path="url(#clipPath81)" fill="black" stroke="none" xml:space="preserve">ieSendACrisis(crisis with ID 1 details)</text>
      <line clip-path="url(#clipPath82)" fill="none" x1="695" x2="702" y1="265" y2="262" stroke-dasharray="none" />
      <line clip-path="url(#clipPath82)" fill="none" x1="702" x2="695" y1="262" y2="259" stroke-dasharray="none" />
      <line clip-path="url(#clipPath58)" fill="none" x1="565" x2="45" y1="389" y2="389" />
      <text x="117" y="381" clip-path="url(#clipPath83)" fill="black" stroke="none" xml:space="preserve">ieSmsSend(+3524666445252,The handling of your alert by our services is in progress !)</text>
      <line clip-path="url(#clipPath84)" fill="none" x1="558" x2="565" y1="392" y2="389" stroke-dasharray="none" />
      <line clip-path="url(#clipPath84)" fill="none" x1="565" x2="558" y1="389" y2="386" stroke-dasharray="none" />
      <line clip-path="url(#clipPath58)" fill="none" x1="702" x2="45" y1="449" y2="449" />
      <text x="93" y="439" clip-path="url(#clipPath85)" fill="black" stroke="none" xml:space="preserve">ieMessage(You are now considered as handling the crisis !)</text>
      <line clip-path="url(#clipPath86)" fill="none" x1="695" x2="702" y1="452" y2="449" stroke-dasharray="none" />
      <line clip-path="url(#clipPath86)" fill="none" x1="702" x2="695" y1="449" y2="446" stroke-dasharray="none" />
      <line clip-path="url(#clipPath58)" fill="none" x1="702" x2="45" y1="629" y2="629" />
      <text x="88" y="620" clip-path="url(#clipPath87)" fill="black" stroke="none" xml:space="preserve">ieMessage(The Alert is now declared as valid !)</text>
      <line clip-path="url(#clipPath88)" fill="none" x1="695" x2="702" y1="632" y2="629" stroke-dasharray="none" />
      <line clip-path="url(#clipPath88)" fill="none" x1="702" x2="695" y1="629" y2="626" stroke-dasharray="none" />
      <line clip-path="url(#clipPath58)" fill="none" x1="565" x2="45" y1="749" y2="749" />
      <text x="134" y="743" clip-path="url(#clipPath89)" fill="black" stroke="none" xml:space="preserve">ieSmsSend(+3524666445000,Your alert has been registered. We will handle it and keep you informed)</text>
      <line clip-path="url(#clipPath90)" fill="none" x1="558" x2="565" y1="752" y2="749" stroke-dasharray="none" />
      <line clip-path="url(#clipPath90)" fill="none" x1="565" x2="558" y1="749" y2="746" stroke-dasharray="none" />
      <line clip-path="url(#clipPath58)" fill="none" x1="702" x2="45" y1="929" y2="929" />
      <text x="85" y="921" clip-path="url(#clipPath91)" fill="black" stroke="none" xml:space="preserve">ieMessage(The crisis status has been updated !)</text>
      <line clip-path="url(#clipPath92)" fill="none" x1="695" x2="702" y1="932" y2="929" stroke-dasharray="none" />
      <line clip-path="url(#clipPath92)" fill="none" x1="702" x2="695" y1="929" y2="926" stroke-dasharray="none" />
      <line clip-path="url(#clipPath58)" fill="none" x1="702" x2="45" y1="1049" y2="1049" />
      <text x="85" y="1040" clip-path="url(#clipPath93)" fill="black" stroke="none" xml:space="preserve">ieMessage(The crisis comment has been updated !)</text>
      <line clip-path="url(#clipPath94)" fill="none" x1="695" x2="702" y1="1052" y2="1049" stroke-dasharray="none" />
      <line clip-path="url(#clipPath94)" fill="none" x1="702" x2="695" y1="1049" y2="1046" stroke-dasharray="none" />
      <line clip-path="url(#clipPath58)" fill="none" x1="702" x2="45" y1="1169" y2="1169" />
      <text x="79" y="1159" clip-path="url(#clipPath95)" fill="black" stroke="none" xml:space="preserve">ieMessage(The crisis is now closed !)</text>
      <line clip-path="url(#clipPath96)" fill="none" x1="695" x2="702" y1="1172" y2="1169" stroke-dasharray="none" />
      <line clip-path="url(#clipPath96)" fill="none" x1="702" x2="695" y1="1169" y2="1166" stroke-dasharray="none" />
    </g>
  </g>
</svg>

