<?xml version="1.0" encoding="UTF-8"?>
<svg xmlns="http://www.w3.org/2000/svg" xmlns:xlink="http://www.w3.org/1999/xlink" stroke-dasharray="none" shape-rendering="auto" font-family="'Dialog'" width="825" text-rendering="auto" fill-opacity="1" contentScriptType="text/ecmascript" color-interpolation="auto" color-rendering="auto" preserveAspectRatio="xMidYMid meet" font-size="12" viewBox="0 0 825 1085" fill="black" stroke="black" image-rendering="auto" stroke-miterlimit="10" zoomAndPan="magnify" version="1.0" stroke-linecap="square" stroke-linejoin="miter" contentStyleType="text/css" font-style="normal" height="1085" stroke-width="1" stroke-dashoffset="0" font-weight="normal" stroke-opacity="1">
  <!--Generated by the Batik Graphics2D SVG Generator-->
  <defs id="genericDefs" />
  <g>
    <defs id="defs1">
      <clipPath clipPathUnits="userSpaceOnUse" id="clipPath1">
        <path d="M9 9 L81 9 L81 41 L9 41 L9 9 Z" />
      </clipPath>
      <clipPath clipPathUnits="userSpaceOnUse" id="clipPath2">
        <path d="M9 9 L84 9 L84 41 L9 41 L9 9 Z" />
      </clipPath>
      <clipPath clipPathUnits="userSpaceOnUse" id="clipPath3">
        <path d="M39 39 L51 39 L51 1076 L39 1076 L39 39 Z" />
      </clipPath>
      <clipPath clipPathUnits="userSpaceOnUse" id="clipPath4">
        <path d="M168 9 L286 9 L286 61 L168 61 L168 9 Z" />
      </clipPath>
      <clipPath clipPathUnits="userSpaceOnUse" id="clipPath5">
        <path d="M168 9 L288 9 L288 61 L168 61 L168 9 Z" />
      </clipPath>
      <clipPath clipPathUnits="userSpaceOnUse" id="clipPath6">
        <path d="M221 59 L233 59 L233 1076 L221 1076 L221 59 Z" />
      </clipPath>
      <clipPath clipPathUnits="userSpaceOnUse" id="clipPath7">
        <path d="M216 89 L238 89 L238 131 L216 131 L216 89 Z" />
      </clipPath>
      <clipPath clipPathUnits="userSpaceOnUse" id="clipPath8">
        <path d="M237 89 L274 89 L274 106 L237 106 L237 89 Z" />
      </clipPath>
      <clipPath clipPathUnits="userSpaceOnUse" id="clipPath9">
        <path d="M294 9 L395 9 L395 61 L294 61 L294 9 Z" />
      </clipPath>
      <clipPath clipPathUnits="userSpaceOnUse" id="clipPath10">
        <path d="M294 9 L397 9 L397 61 L294 61 L294 9 Z" />
      </clipPath>
      <clipPath clipPathUnits="userSpaceOnUse" id="clipPath11">
        <path d="M338 59 L350 59 L350 1076 L338 1076 L338 59 Z" />
      </clipPath>
      <clipPath clipPathUnits="userSpaceOnUse" id="clipPath12">
        <path d="M333 149 L355 149 L355 191 L333 191 L333 149 Z" />
      </clipPath>
      <clipPath clipPathUnits="userSpaceOnUse" id="clipPath13">
        <path d="M354 149 L391 149 L391 166 L354 166 L354 149 Z" />
      </clipPath>
      <clipPath clipPathUnits="userSpaceOnUse" id="clipPath14">
        <path d="M333 569 L355 569 L355 611 L333 611 L333 569 Z" />
      </clipPath>
      <clipPath clipPathUnits="userSpaceOnUse" id="clipPath15">
        <path d="M354 569 L391 569 L391 586 L354 586 L354 569 Z" />
      </clipPath>
      <clipPath clipPathUnits="userSpaceOnUse" id="clipPath16">
        <path d="M333 789 L355 789 L355 831 L333 831 L333 789 Z" />
      </clipPath>
      <clipPath clipPathUnits="userSpaceOnUse" id="clipPath17">
        <path d="M354 789 L391 789 L391 806 L354 806 L354 789 Z" />
      </clipPath>
      <clipPath clipPathUnits="userSpaceOnUse" id="clipPath18">
        <path d="M333 849 L355 849 L355 891 L333 891 L333 849 Z" />
      </clipPath>
      <clipPath clipPathUnits="userSpaceOnUse" id="clipPath19">
        <path d="M354 849 L391 849 L391 866 L354 866 L354 849 Z" />
      </clipPath>
      <clipPath clipPathUnits="userSpaceOnUse" id="clipPath20">
        <path d="M403 9 L534 9 L534 61 L403 61 L403 9 Z" />
      </clipPath>
      <clipPath clipPathUnits="userSpaceOnUse" id="clipPath21">
        <path d="M403 9 L536 9 L536 61 L403 61 L403 9 Z" />
      </clipPath>
      <clipPath clipPathUnits="userSpaceOnUse" id="clipPath22">
        <path d="M462 59 L474 59 L474 1076 L462 1076 L462 59 Z" />
      </clipPath>
      <clipPath clipPathUnits="userSpaceOnUse" id="clipPath23">
        <path d="M457 209 L479 209 L479 251 L457 251 L457 209 Z" />
      </clipPath>
      <clipPath clipPathUnits="userSpaceOnUse" id="clipPath24">
        <path d="M478 209 L515 209 L515 226 L478 226 L478 209 Z" />
      </clipPath>
      <clipPath clipPathUnits="userSpaceOnUse" id="clipPath25">
        <path d="M457 329 L479 329 L479 371 L457 371 L457 329 Z" />
      </clipPath>
      <clipPath clipPathUnits="userSpaceOnUse" id="clipPath26">
        <path d="M478 329 L515 329 L515 346 L478 346 L478 329 Z" />
      </clipPath>
      <clipPath clipPathUnits="userSpaceOnUse" id="clipPath27">
        <path d="M457 449 L479 449 L479 491 L457 491 L457 449 Z" />
      </clipPath>
      <clipPath clipPathUnits="userSpaceOnUse" id="clipPath28">
        <path d="M478 449 L515 449 L515 466 L478 466 L478 449 Z" />
      </clipPath>
      <clipPath clipPathUnits="userSpaceOnUse" id="clipPath29">
        <path d="M457 258 L479 258 L479 300 L457 300 L457 258 Z" />
      </clipPath>
      <clipPath clipPathUnits="userSpaceOnUse" id="clipPath30">
        <path d="M478 258 L507 258 L507 275 L478 275 L478 258 Z" />
      </clipPath>
      <clipPath clipPathUnits="userSpaceOnUse" id="clipPath31">
        <path d="M457 381 L479 381 L479 423 L457 423 L457 381 Z" />
      </clipPath>
      <clipPath clipPathUnits="userSpaceOnUse" id="clipPath32">
        <path d="M478 381 L507 381 L507 398 L478 398 L478 381 Z" />
      </clipPath>
      <clipPath clipPathUnits="userSpaceOnUse" id="clipPath33">
        <path d="M457 499 L479 499 L479 541 L457 541 L457 499 Z" />
      </clipPath>
      <clipPath clipPathUnits="userSpaceOnUse" id="clipPath34">
        <path d="M478 499 L507 499 L507 516 L478 516 L478 499 Z" />
      </clipPath>
      <clipPath clipPathUnits="userSpaceOnUse" id="clipPath35">
        <path d="M457 915 L479 915 L479 957 L457 957 L457 915 Z" />
      </clipPath>
      <clipPath clipPathUnits="userSpaceOnUse" id="clipPath36">
        <path d="M478 915 L507 915 L507 932 L478 932 L478 915 Z" />
      </clipPath>
      <clipPath clipPathUnits="userSpaceOnUse" id="clipPath37">
        <path d="M542 9 L678 9 L678 61 L542 61 L542 9 Z" />
      </clipPath>
      <clipPath clipPathUnits="userSpaceOnUse" id="clipPath38">
        <path d="M542 9 L681 9 L681 61 L542 61 L542 9 Z" />
      </clipPath>
      <clipPath clipPathUnits="userSpaceOnUse" id="clipPath39">
        <path d="M542 9 L680 9 L680 61 L542 61 L542 9 Z" />
      </clipPath>
      <clipPath clipPathUnits="userSpaceOnUse" id="clipPath40">
        <path d="M604 59 L616 59 L616 1076 L604 1076 L604 59 Z" />
      </clipPath>
      <clipPath clipPathUnits="userSpaceOnUse" id="clipPath41">
        <path d="M599 664 L621 664 L621 706 L599 706 L599 664 Z" />
      </clipPath>
      <clipPath clipPathUnits="userSpaceOnUse" id="clipPath42">
        <path d="M620 664 L657 664 L657 681 L620 681 L620 664 Z" />
      </clipPath>
      <clipPath clipPathUnits="userSpaceOnUse" id="clipPath43">
        <path d="M599 729 L621 729 L621 771 L599 771 L599 729 Z" />
      </clipPath>
      <clipPath clipPathUnits="userSpaceOnUse" id="clipPath44">
        <path d="M620 729 L649 729 L649 746 L620 746 L620 729 Z" />
      </clipPath>
      <clipPath clipPathUnits="userSpaceOnUse" id="clipPath45">
        <path d="M686 9 L816 9 L816 61 L686 61 L686 9 Z" />
      </clipPath>
      <clipPath clipPathUnits="userSpaceOnUse" id="clipPath46">
        <path d="M686 9 L818 9 L818 61 L686 61 L686 9 Z" />
      </clipPath>
      <clipPath clipPathUnits="userSpaceOnUse" id="clipPath47">
        <path d="M745 59 L757 59 L757 1076 L745 1076 L745 59 Z" />
      </clipPath>
      <clipPath clipPathUnits="userSpaceOnUse" id="clipPath48">
        <path d="M740 984 L762 984 L762 1026 L740 1026 L740 984 Z" />
      </clipPath>
      <clipPath clipPathUnits="userSpaceOnUse" id="clipPath49">
        <path d="M761 984 L790 984 L790 1001 L761 1001 L761 984 Z" />
      </clipPath>
      <clipPath clipPathUnits="userSpaceOnUse" id="clipPath50">
        <path d="M-1 -1 L826 -1 L826 1086 L-1 1086 L-1 -1 Z" />
      </clipPath>
      <clipPath clipPathUnits="userSpaceOnUse" id="clipPath51">
        <path d="M156 68 L203 68 L203 85 L156 85 L156 68 Z" />
      </clipPath>
      <clipPath clipPathUnits="userSpaceOnUse" id="clipPath52">
        <path d="M43 85 L55 85 L55 96 L43 96 L43 85 Z" />
      </clipPath>
      <clipPath clipPathUnits="userSpaceOnUse" id="clipPath53">
        <path d="M98 129 L260 129 L260 146 L98 146 L98 129 Z" />
      </clipPath>
      <clipPath clipPathUnits="userSpaceOnUse" id="clipPath54">
        <path d="M43 145 L55 145 L55 156 L43 156 L43 145 Z" />
      </clipPath>
      <clipPath clipPathUnits="userSpaceOnUse" id="clipPath55">
        <path d="M84 186 L261 186 L261 203 L84 203 L84 186 Z" />
      </clipPath>
      <clipPath clipPathUnits="userSpaceOnUse" id="clipPath56">
        <path d="M43 205 L55 205 L55 216 L43 216 L43 205 Z" />
      </clipPath>
      <clipPath clipPathUnits="userSpaceOnUse" id="clipPath57">
        <path d="M132 305 L364 305 L364 322 L132 322 L132 305 Z" />
      </clipPath>
      <clipPath clipPathUnits="userSpaceOnUse" id="clipPath58">
        <path d="M43 325 L55 325 L55 336 L43 336 L43 325 Z" />
      </clipPath>
      <clipPath clipPathUnits="userSpaceOnUse" id="clipPath59">
        <path d="M72 426 L104 426 L104 443 L72 443 L72 426 Z" />
      </clipPath>
      <clipPath clipPathUnits="userSpaceOnUse" id="clipPath60">
        <path d="M43 445 L55 445 L55 456 L43 456 L43 445 Z" />
      </clipPath>
      <clipPath clipPathUnits="userSpaceOnUse" id="clipPath61">
        <path d="M99 548 L261 548 L261 565 L99 565 L99 548 Z" />
      </clipPath>
      <clipPath clipPathUnits="userSpaceOnUse" id="clipPath62">
        <path d="M43 565 L55 565 L55 576 L43 576 L43 565 Z" />
      </clipPath>
      <clipPath clipPathUnits="userSpaceOnUse" id="clipPath63">
        <path d="M34 604 L536 604 L536 683 L34 683 L34 604 Z" />
      </clipPath>
      <clipPath clipPathUnits="userSpaceOnUse" id="clipPath64">
        <path d="M43 660 L55 660 L55 671 L43 671 L43 660 Z" />
      </clipPath>
      <clipPath clipPathUnits="userSpaceOnUse" id="clipPath65">
        <path d="M96 763 L258 763 L258 780 L96 780 L96 763 Z" />
      </clipPath>
      <clipPath clipPathUnits="userSpaceOnUse" id="clipPath66">
        <path d="M43 785 L55 785 L55 796 L43 796 L43 785 Z" />
      </clipPath>
      <clipPath clipPathUnits="userSpaceOnUse" id="clipPath67">
        <path d="M130 825 L162 825 L162 842 L130 842 L130 825 Z" />
      </clipPath>
      <clipPath clipPathUnits="userSpaceOnUse" id="clipPath68">
        <path d="M43 845 L55 845 L55 856 L43 856 L43 845 Z" />
      </clipPath>
      <clipPath clipPathUnits="userSpaceOnUse" id="clipPath69">
        <path d="M82 236 L299 236 L299 253 L82 253 L82 236 Z" />
      </clipPath>
      <clipPath clipPathUnits="userSpaceOnUse" id="clipPath70">
        <path d="M449 254 L461 254 L461 265 L449 265 L449 254 Z" />
      </clipPath>
      <clipPath clipPathUnits="userSpaceOnUse" id="clipPath71">
        <path d="M72 360 L241 360 L241 377 L72 377 L72 360 Z" />
      </clipPath>
      <clipPath clipPathUnits="userSpaceOnUse" id="clipPath72">
        <path d="M449 377 L461 377 L461 388 L449 388 L449 377 Z" />
      </clipPath>
      <clipPath clipPathUnits="userSpaceOnUse" id="clipPath73">
        <path d="M84 478 L324 478 L324 495 L84 495 L84 478 Z" />
      </clipPath>
      <clipPath clipPathUnits="userSpaceOnUse" id="clipPath74">
        <path d="M449 495 L461 495 L461 506 L449 506 L449 495 Z" />
      </clipPath>
      <clipPath clipPathUnits="userSpaceOnUse" id="clipPath75">
        <path d="M124 709 L676 709 L676 726 L124 726 L124 709 Z" />
      </clipPath>
      <clipPath clipPathUnits="userSpaceOnUse" id="clipPath76">
        <path d="M591 725 L603 725 L603 736 L591 736 L591 725 Z" />
      </clipPath>
      <clipPath clipPathUnits="userSpaceOnUse" id="clipPath77">
        <path d="M122 895 L588 895 L588 912 L122 912 L122 895 Z" />
      </clipPath>
      <clipPath clipPathUnits="userSpaceOnUse" id="clipPath78">
        <path d="M449 911 L461 911 L461 922 L449 922 L449 911 Z" />
      </clipPath>
      <clipPath clipPathUnits="userSpaceOnUse" id="clipPath79">
        <path d="M118 963 L584 963 L584 980 L118 980 L118 963 Z" />
      </clipPath>
      <clipPath clipPathUnits="userSpaceOnUse" id="clipPath80">
        <path d="M732 980 L744 980 L744 991 L732 991 L732 980 Z" />
      </clipPath>
    </defs>
    <g font-size="19" fill="rgb(238,201,142)" font-family="'Lucida Sans'" stroke-linejoin="round" stroke="rgb(238,201,142)" stroke-width="0" stroke-miterlimit="0">
      <rect x="10" y="10" clip-path="url(#clipPath1)" width="70" height="30" stroke="none" />
    </g>
    <g stroke-width="0.1" font-size="19" font-family="'Lucida Sans'" stroke-linecap="butt">
      <rect x="10" y="10" clip-path="url(#clipPath1)" fill="none" width="69" height="29" />
      <text x="25" font-size="11" y="30" clip-path="url(#clipPath2)" font-family="'Lucida Sans Unicode'" stroke="none" xml:space="preserve">System</text>
      <line clip-path="url(#clipPath3)" fill="none" x1="44" x2="44" y1="40" y2="1075" stroke-dasharray="10,10" stroke-width="1.1" />
    </g>
    <g stroke-linecap="butt" font-size="19" fill="rgb(255,245,181)" font-family="'Lucida Sans'" stroke-dasharray="10,10" stroke="rgb(255,245,181)" stroke-width="1.1">
      <rect x="169" y="10" clip-path="url(#clipPath4)" width="116" height="50" stroke="none" />
    </g>
    <g stroke-width="0.1" font-size="19" font-family="'Lucida Sans'" stroke-linecap="butt">
      <rect x="169" y="10" clip-path="url(#clipPath4)" fill="none" width="115" height="49" />
      <text x="198" font-size="11" y="33" clip-path="url(#clipPath5)" font-family="'Lucida Sans Unicode'" stroke="none" xml:space="preserve">theCreator</text>
      <text x="214" font-size="11" y="48" clip-path="url(#clipPath5)" font-family="'Lucida Sans Unicode'" stroke="none" xml:space="preserve">: null</text>
      <line clip-path="url(#clipPath6)" fill="none" x1="226" x2="226" y1="60" y2="1075" stroke-dasharray="10,10" stroke-width="1.1" />
    </g>
    <g stroke-linecap="butt" font-size="19" fill="rgb(39,76,114)" font-family="'Lucida Sans'" stroke-dasharray="10,10" stroke="rgb(39,76,114)" stroke-width="1.1">
      <rect x="217" y="90" clip-path="url(#clipPath7)" width="20" height="40" stroke="none" />
      <rect x="217" y="90" clip-path="url(#clipPath7)" fill="none" width="19" stroke-dasharray="none" height="39" stroke-width="0.1" />
    </g>
    <g stroke-width="0.1" font-size="11" font-family="'Lucida Sans Unicode'" stroke-linecap="butt">
      <text xml:space="preserve" x="238" y="103" clip-path="url(#clipPath8)" stroke="none">out01</text>
    </g>
    <g stroke-linecap="butt" font-size="19" fill="rgb(255,245,181)" font-family="'Lucida Sans'" stroke="rgb(255,245,181)" stroke-width="0.1">
      <rect x="295" y="10" clip-path="url(#clipPath9)" width="99" height="50" stroke="none" />
      <rect x="295" y="10" clip-path="url(#clipPath9)" fill="none" width="98" height="49" stroke="black" />
    </g>
    <g stroke-width="0.1" font-size="11" font-family="'Lucida Sans Unicode'" stroke-linecap="butt">
      <text xml:space="preserve" x="321" y="33" clip-path="url(#clipPath10)" stroke="none">theClock</text>
      <text xml:space="preserve" x="331" y="48" clip-path="url(#clipPath10)" stroke="none">: null</text>
      <line clip-path="url(#clipPath11)" fill="none" x1="343" x2="343" y1="60" y2="1075" stroke-dasharray="10,10" stroke-width="1.1" />
    </g>
    <g stroke-linecap="butt" font-size="19" fill="rgb(39,76,114)" font-family="'Lucida Sans'" stroke-dasharray="10,10" stroke="rgb(39,76,114)" stroke-width="1.1">
      <rect x="334" y="150" clip-path="url(#clipPath12)" width="20" height="40" stroke="none" />
      <rect x="334" y="150" clip-path="url(#clipPath12)" fill="none" width="19" stroke-dasharray="none" height="39" stroke-width="0.1" />
    </g>
    <g stroke-width="0.1" font-size="11" font-family="'Lucida Sans Unicode'" stroke-linecap="butt">
      <text xml:space="preserve" x="355" y="163" clip-path="url(#clipPath13)" stroke="none">out02</text>
    </g>
    <g stroke-linecap="butt" font-size="19" fill="rgb(39,76,114)" font-family="'Lucida Sans'" stroke="rgb(39,76,114)" stroke-width="0.1">
      <rect x="334" y="570" clip-path="url(#clipPath14)" width="20" height="40" stroke="none" />
      <rect x="334" y="570" clip-path="url(#clipPath14)" fill="none" width="19" height="39" />
    </g>
    <g stroke-width="0.1" font-size="11" font-family="'Lucida Sans Unicode'" stroke-linecap="butt">
      <text xml:space="preserve" x="355" y="583" clip-path="url(#clipPath15)" stroke="none">out06</text>
    </g>
    <g stroke-linecap="butt" font-size="19" fill="rgb(39,76,114)" font-family="'Lucida Sans'" stroke="rgb(39,76,114)" stroke-width="0.1">
      <rect x="334" y="790" clip-path="url(#clipPath16)" width="20" height="40" stroke="none" />
      <rect x="334" y="790" clip-path="url(#clipPath16)" fill="none" width="19" height="39" />
    </g>
    <g stroke-width="0.1" font-size="11" font-family="'Lucida Sans Unicode'" stroke-linecap="butt">
      <text xml:space="preserve" x="355" y="803" clip-path="url(#clipPath17)" stroke="none">out08</text>
    </g>
    <g stroke-linecap="butt" font-size="19" fill="rgb(39,76,114)" font-family="'Lucida Sans'" stroke="rgb(39,76,114)" stroke-width="0.1">
      <rect x="334" y="850" clip-path="url(#clipPath18)" width="20" height="40" stroke="none" />
      <rect x="334" y="850" clip-path="url(#clipPath18)" fill="none" width="19" height="39" />
    </g>
    <g stroke-width="0.1" font-size="11" font-family="'Lucida Sans Unicode'" stroke-linecap="butt">
      <text xml:space="preserve" x="355" y="863" clip-path="url(#clipPath19)" stroke="none">out09</text>
    </g>
    <g stroke-linecap="butt" font-size="19" fill="rgb(255,245,181)" font-family="'Lucida Sans'" stroke="rgb(255,245,181)" stroke-width="0.1">
      <rect x="404" y="10" clip-path="url(#clipPath20)" width="129" height="50" stroke="none" />
      <rect x="404" y="10" clip-path="url(#clipPath20)" fill="none" width="128" height="49" stroke="black" />
    </g>
    <g stroke-width="0.1" font-size="11" font-family="'Lucida Sans Unicode'" stroke-linecap="butt">
      <text xml:space="preserve" x="460" y="33" clip-path="url(#clipPath21)" stroke="none">bill</text>
      <text xml:space="preserve" x="455" y="48" clip-path="url(#clipPath21)" stroke="none">: null</text>
      <line clip-path="url(#clipPath22)" fill="none" x1="467" x2="467" y1="60" y2="1075" stroke-dasharray="10,10" stroke-width="1.1" />
    </g>
    <g stroke-linecap="butt" font-size="19" fill="rgb(39,76,114)" font-family="'Lucida Sans'" stroke-dasharray="10,10" stroke="rgb(39,76,114)" stroke-width="1.1">
      <rect x="458" y="210" clip-path="url(#clipPath23)" width="20" height="40" stroke="none" />
      <rect x="458" y="210" clip-path="url(#clipPath23)" fill="none" width="19" stroke-dasharray="none" height="39" stroke-width="0.1" />
    </g>
    <g stroke-width="0.1" font-size="11" font-family="'Lucida Sans Unicode'" stroke-linecap="butt">
      <text xml:space="preserve" x="479" y="223" clip-path="url(#clipPath24)" stroke="none">out03</text>
    </g>
    <g stroke-linecap="butt" font-size="19" fill="rgb(39,76,114)" font-family="'Lucida Sans'" stroke="rgb(39,76,114)" stroke-width="0.1">
      <rect x="458" y="330" clip-path="url(#clipPath25)" width="20" height="40" stroke="none" />
      <rect x="458" y="330" clip-path="url(#clipPath25)" fill="none" width="19" height="39" />
    </g>
    <g stroke-width="0.1" font-size="11" font-family="'Lucida Sans Unicode'" stroke-linecap="butt">
      <text xml:space="preserve" x="479" y="343" clip-path="url(#clipPath26)" stroke="none">out04</text>
    </g>
    <g stroke-linecap="butt" font-size="19" fill="rgb(39,76,114)" font-family="'Lucida Sans'" stroke="rgb(39,76,114)" stroke-width="0.1">
      <rect x="458" y="450" clip-path="url(#clipPath27)" width="20" height="40" stroke="none" />
      <rect x="458" y="450" clip-path="url(#clipPath27)" fill="none" width="19" height="39" />
    </g>
    <g stroke-width="0.1" font-size="11" font-family="'Lucida Sans Unicode'" stroke-linecap="butt">
      <text xml:space="preserve" x="479" y="463" clip-path="url(#clipPath28)" stroke="none">out05</text>
    </g>
    <g stroke-linecap="butt" font-size="19" fill="rgb(194,239,255)" font-family="'Lucida Sans'" stroke="rgb(194,239,255)" stroke-width="0.1">
      <rect x="458" y="259" clip-path="url(#clipPath29)" width="20" height="40" stroke="none" />
      <rect x="458" y="259" clip-path="url(#clipPath29)" fill="none" width="19" height="39" />
    </g>
    <g stroke-width="0.1" font-size="11" font-family="'Lucida Sans Unicode'" stroke-linecap="butt">
      <text xml:space="preserve" x="479" y="272" clip-path="url(#clipPath30)" stroke="none">in01</text>
    </g>
    <g stroke-linecap="butt" font-size="19" fill="rgb(194,239,255)" font-family="'Lucida Sans'" stroke="rgb(194,239,255)" stroke-width="0.1">
      <rect x="458" y="382" clip-path="url(#clipPath31)" width="20" height="40" stroke="none" />
      <rect x="458" y="382" clip-path="url(#clipPath31)" fill="none" width="19" height="39" />
    </g>
    <g stroke-width="0.1" font-size="11" font-family="'Lucida Sans Unicode'" stroke-linecap="butt">
      <text xml:space="preserve" x="479" y="395" clip-path="url(#clipPath32)" stroke="none">in02</text>
    </g>
    <g stroke-linecap="butt" font-size="19" fill="rgb(194,239,255)" font-family="'Lucida Sans'" stroke="rgb(194,239,255)" stroke-width="0.1">
      <rect x="458" y="500" clip-path="url(#clipPath33)" width="20" height="40" stroke="none" />
      <rect x="458" y="500" clip-path="url(#clipPath33)" fill="none" width="19" height="39" />
    </g>
    <g stroke-width="0.1" font-size="11" font-family="'Lucida Sans Unicode'" stroke-linecap="butt">
      <text xml:space="preserve" x="479" y="513" clip-path="url(#clipPath34)" stroke="none">in03</text>
    </g>
    <g stroke-linecap="butt" font-size="19" fill="rgb(194,239,255)" font-family="'Lucida Sans'" stroke="rgb(194,239,255)" stroke-width="0.1">
      <rect x="458" y="916" clip-path="url(#clipPath35)" width="20" height="40" stroke="none" />
      <rect x="458" y="916" clip-path="url(#clipPath35)" fill="none" width="19" height="39" />
    </g>
    <g stroke-width="0.1" font-size="11" font-family="'Lucida Sans Unicode'" stroke-linecap="butt">
      <text xml:space="preserve" x="479" y="929" clip-path="url(#clipPath36)" stroke="none">in05</text>
    </g>
    <g stroke-linecap="butt" font-size="19" fill="rgb(255,245,181)" font-family="'Lucida Sans'" stroke="rgb(255,245,181)" stroke-width="0.1">
      <rect x="543" y="10" clip-path="url(#clipPath37)" width="134" height="50" stroke="none" />
      <rect x="543" y="10" clip-path="url(#clipPath37)" fill="none" width="133" height="49" stroke="black" />
    </g>
    <g stroke-width="0.1" font-size="11" font-family="'Lucida Sans Unicode'" stroke-linecap="butt">
      <text xml:space="preserve" x="594" y="33" clip-path="url(#clipPath38)" stroke="none">tango</text>
      <text xml:space="preserve" x="596" y="48" clip-path="url(#clipPath39)" stroke="none">: null</text>
      <line clip-path="url(#clipPath40)" fill="none" x1="609" x2="609" y1="60" y2="1075" stroke-dasharray="10,10" stroke-width="1.1" />
    </g>
    <g stroke-linecap="butt" font-size="19" fill="rgb(39,76,114)" font-family="'Lucida Sans'" stroke-dasharray="10,10" stroke="rgb(39,76,114)" stroke-width="1.1">
      <rect x="600" y="665" clip-path="url(#clipPath41)" width="20" height="40" stroke="none" />
      <rect x="600" y="665" clip-path="url(#clipPath41)" fill="none" width="19" stroke-dasharray="none" height="39" stroke-width="0.1" />
    </g>
    <g stroke-width="0.1" font-size="11" font-family="'Lucida Sans Unicode'" stroke-linecap="butt">
      <text xml:space="preserve" x="621" y="678" clip-path="url(#clipPath42)" stroke="none">out07</text>
    </g>
    <g stroke-linecap="butt" font-size="19" fill="rgb(194,239,255)" font-family="'Lucida Sans'" stroke="rgb(194,239,255)" stroke-width="0.1">
      <rect x="600" y="730" clip-path="url(#clipPath43)" width="20" height="40" stroke="none" />
      <rect x="600" y="730" clip-path="url(#clipPath43)" fill="none" width="19" height="39" />
    </g>
    <g stroke-width="0.1" font-size="11" font-family="'Lucida Sans Unicode'" stroke-linecap="butt">
      <text xml:space="preserve" x="621" y="743" clip-path="url(#clipPath44)" stroke="none">in04</text>
    </g>
    <g stroke-linecap="butt" font-size="19" fill="rgb(255,245,181)" font-family="'Lucida Sans'" stroke="rgb(255,245,181)" stroke-width="0.1">
      <rect x="687" y="10" clip-path="url(#clipPath45)" width="128" height="50" stroke="none" />
      <rect x="687" y="10" clip-path="url(#clipPath45)" fill="none" width="127" height="49" stroke="black" />
    </g>
    <g stroke-width="0.1" font-size="11" font-family="'Lucida Sans Unicode'" stroke-linecap="butt">
      <text xml:space="preserve" x="737" y="33" clip-path="url(#clipPath46)" stroke="none">steve</text>
      <text xml:space="preserve" x="738" y="48" clip-path="url(#clipPath46)" stroke="none">: null</text>
      <line clip-path="url(#clipPath47)" fill="none" x1="750" x2="750" y1="60" y2="1075" stroke-dasharray="10,10" stroke-width="1.1" />
    </g>
    <g stroke-linecap="butt" font-size="19" fill="rgb(194,239,255)" font-family="'Lucida Sans'" stroke-dasharray="10,10" stroke="rgb(194,239,255)" stroke-width="1.1">
      <rect x="741" y="985" clip-path="url(#clipPath48)" width="20" height="40" stroke="none" />
      <rect x="741" y="985" clip-path="url(#clipPath48)" fill="none" width="19" stroke-dasharray="none" height="39" stroke-width="0.1" />
    </g>
    <g stroke-width="0.1" font-size="11" font-family="'Lucida Sans Unicode'" stroke-linecap="butt">
      <text xml:space="preserve" x="762" y="998" clip-path="url(#clipPath49)" stroke="none">in06</text>
      <line clip-path="url(#clipPath50)" fill="none" x1="217" x2="45" y1="90" y2="90" stroke="rgb(136,136,136)" stroke-width="2.1" />
      <text x="157" y="82" clip-path="url(#clipPath51)" stroke="none" stroke-width="2.1" xml:space="preserve">null("4")</text>
      <line clip-path="url(#clipPath52)" fill="none" x1="52" x2="45" y1="87" y2="90" stroke="rgb(136,136,136)" stroke-width="2.1" />
      <line clip-path="url(#clipPath52)" fill="none" x1="45" x2="52" y1="90" y2="93" stroke="rgb(136,136,136)" stroke-width="2.1" />
      <line clip-path="url(#clipPath50)" fill="none" x1="334" x2="45" y1="150" y2="150" stroke="rgb(136,136,136)" stroke-width="2.1" />
      <text x="99" y="143" clip-path="url(#clipPath53)" stroke="none" stroke-width="2.1" xml:space="preserve">null("2017:11:24 - 03:20:00")</text>
      <line clip-path="url(#clipPath54)" fill="none" x1="52" x2="45" y1="147" y2="150" stroke="rgb(136,136,136)" stroke-width="2.1" />
      <line clip-path="url(#clipPath54)" fill="none" x1="45" x2="52" y1="150" y2="153" stroke="rgb(136,136,136)" stroke-width="2.1" />
      <line clip-path="url(#clipPath50)" fill="none" x1="458" x2="45" y1="210" y2="210" stroke="rgb(136,136,136)" stroke-width="2.1" />
      <text x="85" y="200" clip-path="url(#clipPath55)" stroke="none" stroke-width="2.1" xml:space="preserve">null("icrashadmin","7WXC1359")</text>
      <line clip-path="url(#clipPath56)" fill="none" x1="52" x2="45" y1="207" y2="210" stroke="rgb(136,136,136)" stroke-width="2.1" />
      <line clip-path="url(#clipPath56)" fill="none" x1="45" x2="52" y1="210" y2="213" stroke="rgb(136,136,136)" stroke-width="2.1" />
      <line clip-path="url(#clipPath50)" fill="none" x1="458" x2="45" y1="330" y2="330" stroke="rgb(136,136,136)" stroke-width="2.1" />
      <text x="133" y="319" clip-path="url(#clipPath57)" stroke="none" stroke-width="2.1" xml:space="preserve">null("1","steve","pwdMessirExcalibur2017")</text>
      <line clip-path="url(#clipPath58)" fill="none" x1="52" x2="45" y1="327" y2="330" stroke="rgb(136,136,136)" stroke-width="2.1" />
      <line clip-path="url(#clipPath58)" fill="none" x1="45" x2="52" y1="330" y2="333" stroke="rgb(136,136,136)" stroke-width="2.1" />
      <line clip-path="url(#clipPath50)" fill="none" x1="458" x2="45" y1="450" y2="450" stroke="rgb(136,136,136)" stroke-width="2.1" />
      <text x="73" y="440" clip-path="url(#clipPath59)" stroke="none" stroke-width="2.1" xml:space="preserve">null()</text>
      <line clip-path="url(#clipPath60)" fill="none" x1="52" x2="45" y1="447" y2="450" stroke="rgb(136,136,136)" stroke-width="2.1" />
      <line clip-path="url(#clipPath60)" fill="none" x1="45" x2="52" y1="450" y2="453" stroke="rgb(136,136,136)" stroke-width="2.1" />
      <line clip-path="url(#clipPath50)" fill="none" x1="334" x2="45" y1="570" y2="570" stroke="rgb(136,136,136)" stroke-width="2.1" />
      <text x="100" y="562" clip-path="url(#clipPath61)" stroke="none" stroke-width="2.1" xml:space="preserve">null("2017:11:26 - 10:15:00")</text>
      <line clip-path="url(#clipPath62)" fill="none" x1="52" x2="45" y1="567" y2="570" stroke="rgb(136,136,136)" stroke-width="2.1" />
      <line clip-path="url(#clipPath62)" fill="none" x1="45" x2="52" y1="570" y2="573" stroke="rgb(136,136,136)" stroke-width="2.1" />
      <line clip-path="url(#clipPath50)" fill="none" x1="600" x2="45" y1="665" y2="665" stroke="rgb(136,136,136)" stroke-width="2.1" />
      <text x="42" y="641" clip-path="url(#clipPath63)" stroke="none" stroke-width="2.1" xml:space="preserve">null("witness","2017:11:26","10:10:16","+3524666445252","49.627675:6.159590","3 cars </text>
      <text x="217" y="656" clip-path="url(#clipPath63)" stroke="none" stroke-width="2.1" xml:space="preserve">involved in an accident.")</text>
      <line clip-path="url(#clipPath64)" fill="none" x1="52" x2="45" y1="662" y2="665" stroke="rgb(136,136,136)" stroke-width="2.1" />
      <line clip-path="url(#clipPath64)" fill="none" x1="45" x2="52" y1="665" y2="668" stroke="rgb(136,136,136)" stroke-width="2.1" />
      <line clip-path="url(#clipPath50)" fill="none" x1="334" x2="45" y1="790" y2="790" stroke="rgb(136,136,136)" stroke-width="2.1" />
      <text x="97" y="777" clip-path="url(#clipPath65)" stroke="none" stroke-width="2.1" xml:space="preserve">null("2017:11:26 - 10:30:00")</text>
      <line clip-path="url(#clipPath66)" fill="none" x1="52" x2="45" y1="787" y2="790" stroke="rgb(136,136,136)" stroke-width="2.1" />
      <line clip-path="url(#clipPath66)" fill="none" x1="45" x2="52" y1="790" y2="793" stroke="rgb(136,136,136)" stroke-width="2.1" />
      <line clip-path="url(#clipPath50)" fill="none" x1="334" x2="45" y1="850" y2="850" stroke="rgb(136,136,136)" stroke-width="2.1" />
      <text x="131" y="839" clip-path="url(#clipPath67)" stroke="none" stroke-width="2.1" xml:space="preserve">null()</text>
      <line clip-path="url(#clipPath68)" fill="none" x1="52" x2="45" y1="847" y2="850" stroke="rgb(136,136,136)" stroke-width="2.1" />
      <line clip-path="url(#clipPath68)" fill="none" x1="45" x2="52" y1="850" y2="853" stroke="rgb(136,136,136)" stroke-width="2.1" />
    </g>
    <g stroke-linecap="butt" font-size="11" fill="rgb(136,136,136)" font-family="'Lucida Sans Unicode'" stroke-dasharray="5,5" stroke="rgb(136,136,136)" stroke-width="2.1">
      <line clip-path="url(#clipPath50)" fill="none" x1="458" x2="45" y1="259" y2="259" />
      <text x="83" y="250" clip-path="url(#clipPath69)" fill="black" stroke="none" xml:space="preserve">ieMessage(You are logged ! Welcome ...)</text>
      <line clip-path="url(#clipPath70)" fill="none" x1="451" x2="458" y1="262" y2="259" stroke-dasharray="none" />
      <line clip-path="url(#clipPath70)" fill="none" x1="458" x2="451" y1="259" y2="256" stroke-dasharray="none" />
      <line clip-path="url(#clipPath50)" fill="none" x1="458" x2="45" y1="382" y2="382" />
      <text x="73" y="374" clip-path="url(#clipPath71)" fill="black" stroke="none" xml:space="preserve">ieCoordinatorAddedreturned()</text>
      <line clip-path="url(#clipPath72)" fill="none" x1="451" x2="458" y1="385" y2="382" stroke-dasharray="none" />
      <line clip-path="url(#clipPath72)" fill="none" x1="458" x2="451" y1="382" y2="379" stroke-dasharray="none" />
      <line clip-path="url(#clipPath50)" fill="none" x1="458" x2="45" y1="500" y2="500" />
      <text x="85" y="492" clip-path="url(#clipPath73)" fill="black" stroke="none" xml:space="preserve">ieMessage(You are logged out ! Good Bye ...)</text>
      <line clip-path="url(#clipPath74)" fill="none" x1="451" x2="458" y1="503" y2="500" stroke-dasharray="none" />
      <line clip-path="url(#clipPath74)" fill="none" x1="458" x2="451" y1="500" y2="497" stroke-dasharray="none" />
      <line clip-path="url(#clipPath50)" fill="none" x1="600" x2="45" y1="730" y2="730" />
      <text x="125" y="723" clip-path="url(#clipPath75)" fill="black" stroke="none" xml:space="preserve">ieSmsSend(+3524666445252,Your alert has been registered. We will handle it and keep you informed)</text>
      <line clip-path="url(#clipPath76)" fill="none" x1="593" x2="600" y1="733" y2="730" stroke-dasharray="none" />
      <line clip-path="url(#clipPath76)" fill="none" x1="600" x2="593" y1="730" y2="727" stroke-dasharray="none" />
      <line clip-path="url(#clipPath50)" fill="none" x1="458" x2="45" y1="916" y2="916" />
      <text x="123" y="909" clip-path="url(#clipPath77)" fill="black" stroke="none" xml:space="preserve">ieMessage(There are alerts pending since more than the defined delay. Please REACT !)</text>
      <line clip-path="url(#clipPath78)" fill="none" x1="451" x2="458" y1="919" y2="916" stroke-dasharray="none" />
      <line clip-path="url(#clipPath78)" fill="none" x1="458" x2="451" y1="916" y2="913" stroke-dasharray="none" />
      <line clip-path="url(#clipPath50)" fill="none" x1="741" x2="45" y1="985" y2="985" />
      <text x="119" y="977" clip-path="url(#clipPath79)" fill="black" stroke="none" xml:space="preserve">ieMessage(There are alerts pending since more than the defined delay. Please REACT !)</text>
      <line clip-path="url(#clipPath80)" fill="none" x1="734" x2="741" y1="988" y2="985" stroke-dasharray="none" />
      <line clip-path="url(#clipPath80)" fill="none" x1="741" x2="734" y1="985" y2="982" stroke-dasharray="none" />
    </g>
  </g>
</svg>

