<?xml version="1.0" encoding="UTF-8"?>
<svg xmlns="http://www.w3.org/2000/svg" xmlns:xlink="http://www.w3.org/1999/xlink" stroke-dasharray="none" shape-rendering="auto" font-family="'Dialog'" width="552" text-rendering="auto" fill-opacity="1" contentScriptType="text/ecmascript" color-interpolation="auto" color-rendering="auto" preserveAspectRatio="xMidYMid meet" font-size="12" viewBox="0 0 552 610" fill="black" stroke="black" image-rendering="auto" stroke-miterlimit="10" zoomAndPan="magnify" version="1.0" stroke-linecap="square" stroke-linejoin="miter" contentStyleType="text/css" font-style="normal" height="610" stroke-width="1" stroke-dashoffset="0" font-weight="normal" stroke-opacity="1">
  <!--Generated by the Batik Graphics2D SVG Generator-->
  <defs id="genericDefs" />
  <g>
    <defs id="defs1">
      <clipPath clipPathUnits="userSpaceOnUse" id="clipPath1">
        <path d="M9 9 L81 9 L81 41 L9 41 L9 9 Z" />
      </clipPath>
      <clipPath clipPathUnits="userSpaceOnUse" id="clipPath2">
        <path d="M9 9 L84 9 L84 41 L9 41 L9 9 Z" />
      </clipPath>
      <clipPath clipPathUnits="userSpaceOnUse" id="clipPath3">
        <path d="M39 39 L51 39 L51 601 L39 601 L39 39 Z" />
      </clipPath>
      <clipPath clipPathUnits="userSpaceOnUse" id="clipPath4">
        <path d="M434 9 L543 9 L543 45 L434 45 L434 9 Z" />
      </clipPath>
      <clipPath clipPathUnits="userSpaceOnUse" id="clipPath5">
        <path d="M434 9 L545 9 L545 45 L434 45 L434 9 Z" />
      </clipPath>
      <clipPath clipPathUnits="userSpaceOnUse" id="clipPath6">
        <path d="M482 43 L494 43 L494 601 L482 601 L482 43 Z" />
      </clipPath>
      <clipPath clipPathUnits="userSpaceOnUse" id="clipPath7">
        <path d="M477 61 L499 61 L499 86 L477 86 L477 61 Z" />
      </clipPath>
      <clipPath clipPathUnits="userSpaceOnUse" id="clipPath8">
        <path d="M498 61 L537 61 L537 79 L498 79 L498 61 Z" />
      </clipPath>
      <clipPath clipPathUnits="userSpaceOnUse" id="clipPath9">
        <path d="M477 146 L499 146 L499 171 L477 171 L477 146 Z" />
      </clipPath>
      <clipPath clipPathUnits="userSpaceOnUse" id="clipPath10">
        <path d="M498 146 L537 146 L537 164 L498 164 L498 146 Z" />
      </clipPath>
      <clipPath clipPathUnits="userSpaceOnUse" id="clipPath11">
        <path d="M477 226 L499 226 L499 247 L477 247 L477 226 Z" />
      </clipPath>
      <clipPath clipPathUnits="userSpaceOnUse" id="clipPath12">
        <path d="M498 226 L537 226 L537 244 L498 244 L498 226 Z" />
      </clipPath>
      <clipPath clipPathUnits="userSpaceOnUse" id="clipPath13">
        <path d="M477 297 L499 297 L499 319 L477 319 L477 297 Z" />
      </clipPath>
      <clipPath clipPathUnits="userSpaceOnUse" id="clipPath14">
        <path d="M498 297 L537 297 L537 315 L498 315 L498 297 Z" />
      </clipPath>
      <clipPath clipPathUnits="userSpaceOnUse" id="clipPath15">
        <path d="M477 102 L499 102 L499 127 L477 127 L477 102 Z" />
      </clipPath>
      <clipPath clipPathUnits="userSpaceOnUse" id="clipPath16">
        <path d="M498 102 L529 102 L529 120 L498 120 L498 102 Z" />
      </clipPath>
      <clipPath clipPathUnits="userSpaceOnUse" id="clipPath17">
        <path d="M477 188 L499 188 L499 211 L477 211 L477 188 Z" />
      </clipPath>
      <clipPath clipPathUnits="userSpaceOnUse" id="clipPath18">
        <path d="M498 188 L529 188 L529 206 L498 206 L498 188 Z" />
      </clipPath>
      <clipPath clipPathUnits="userSpaceOnUse" id="clipPath19">
        <path d="M477 260 L499 260 L499 283 L477 283 L477 260 Z" />
      </clipPath>
      <clipPath clipPathUnits="userSpaceOnUse" id="clipPath20">
        <path d="M498 260 L529 260 L529 278 L498 278 L498 260 Z" />
      </clipPath>
      <clipPath clipPathUnits="userSpaceOnUse" id="clipPath21">
        <path d="M477 331 L499 331 L499 355 L477 355 L477 331 Z" />
      </clipPath>
      <clipPath clipPathUnits="userSpaceOnUse" id="clipPath22">
        <path d="M498 331 L529 331 L529 349 L498 349 L498 331 Z" />
      </clipPath>
      <clipPath clipPathUnits="userSpaceOnUse" id="clipPath23">
        <path d="M-1 -1 L553 -1 L553 611 L-1 611 L-1 -1 Z" />
      </clipPath>
      <clipPath clipPathUnits="userSpaceOnUse" id="clipPath24">
        <path d="M188 43 L337 43 L337 61 L188 61 L188 43 Z" />
      </clipPath>
      <clipPath clipPathUnits="userSpaceOnUse" id="clipPath25">
        <path d="M43 57 L55 57 L55 68 L43 68 L43 57 Z" />
      </clipPath>
      <clipPath clipPathUnits="userSpaceOnUse" id="clipPath26">
        <path d="M181 128 L343 128 L343 146 L181 146 L181 128 Z" />
      </clipPath>
      <clipPath clipPathUnits="userSpaceOnUse" id="clipPath27">
        <path d="M43 142 L55 142 L55 153 L43 153 L43 142 Z" />
      </clipPath>
      <clipPath clipPathUnits="userSpaceOnUse" id="clipPath28">
        <path d="M230 208 L295 208 L295 226 L230 226 L230 208 Z" />
      </clipPath>
      <clipPath clipPathUnits="userSpaceOnUse" id="clipPath29">
        <path d="M43 222 L55 222 L55 233 L43 233 L43 222 Z" />
      </clipPath>
      <clipPath clipPathUnits="userSpaceOnUse" id="clipPath30">
        <path d="M187 279 L337 279 L337 297 L187 297 L187 279 Z" />
      </clipPath>
      <clipPath clipPathUnits="userSpaceOnUse" id="clipPath31">
        <path d="M43 293 L55 293 L55 304 L43 304 L43 293 Z" />
      </clipPath>
      <clipPath clipPathUnits="userSpaceOnUse" id="clipPath32">
        <path d="M143 84 L382 84 L382 102 L143 102 L143 84 Z" />
      </clipPath>
      <clipPath clipPathUnits="userSpaceOnUse" id="clipPath33">
        <path d="M469 98 L481 98 L481 109 L469 109 L469 98 Z" />
      </clipPath>
      <clipPath clipPathUnits="userSpaceOnUse" id="clipPath34">
        <path d="M123 170 L402 170 L402 188 L123 188 L123 170 Z" />
      </clipPath>
      <clipPath clipPathUnits="userSpaceOnUse" id="clipPath35">
        <path d="M469 184 L481 184 L481 195 L469 195 L469 184 Z" />
      </clipPath>
      <clipPath clipPathUnits="userSpaceOnUse" id="clipPath36">
        <path d="M130 242 L394 242 L394 260 L130 260 L130 242 Z" />
      </clipPath>
      <clipPath clipPathUnits="userSpaceOnUse" id="clipPath37">
        <path d="M469 256 L481 256 L481 267 L469 267 L469 256 Z" />
      </clipPath>
      <clipPath clipPathUnits="userSpaceOnUse" id="clipPath38">
        <path d="M143 313 L382 313 L382 331 L143 331 L143 313 Z" />
      </clipPath>
      <clipPath clipPathUnits="userSpaceOnUse" id="clipPath39">
        <path d="M469 327 L481 327 L481 338 L469 338 L469 327 Z" />
      </clipPath>
    </defs>
    <g fill="rgb(238,201,142)" font-family="'Segoe UI'" stroke-linejoin="round" stroke="rgb(238,201,142)" stroke-width="0" stroke-miterlimit="0">
      <rect x="10" y="10" clip-path="url(#clipPath1)" width="70" height="30" stroke="none" />
    </g>
    <g stroke-width="0.1" font-family="'Segoe UI'" stroke-linecap="butt">
      <rect x="10" y="10" clip-path="url(#clipPath1)" fill="none" width="69" height="29" />
      <text x="25" y="31" clip-path="url(#clipPath2)" font-family="'Lucida Sans Unicode'" stroke="none" xml:space="preserve">System</text>
      <line clip-path="url(#clipPath3)" fill="none" x1="44" x2="44" y1="40" y2="600" stroke-dasharray="10,10" stroke-width="1.1" />
    </g>
    <g stroke-linecap="butt" fill="rgb(255,245,181)" font-family="'Segoe UI'" stroke-dasharray="10,10" stroke="rgb(255,245,181)" stroke-width="1.1">
      <rect x="435" y="10" clip-path="url(#clipPath4)" width="107" height="34" stroke="none" />
    </g>
    <g stroke-width="0.1" font-family="'Segoe UI'" stroke-linecap="butt">
      <rect x="435" y="10" clip-path="url(#clipPath4)" fill="none" width="106" height="33" />
      <text x="480" y="25" clip-path="url(#clipPath5)" font-family="'Lucida Sans Unicode'" stroke="none" xml:space="preserve">bill</text>
      <text x="442" y="41" clip-path="url(#clipPath5)" font-family="'Lucida Sans Unicode'" stroke="none" xml:space="preserve">: actCoordinator</text>
      <line clip-path="url(#clipPath6)" fill="none" x1="487" x2="487" y1="44" y2="600" stroke-dasharray="10,10" stroke-width="1.1" />
    </g>
    <g stroke-linecap="butt" fill="rgb(39,76,114)" font-family="'Segoe UI'" stroke-dasharray="10,10" stroke="rgb(39,76,114)" stroke-width="1.1">
      <rect x="478" y="62" clip-path="url(#clipPath7)" width="20" height="23" stroke="none" />
      <rect x="478" y="62" clip-path="url(#clipPath7)" fill="none" width="19" stroke-dasharray="none" height="22" stroke-width="0.1" />
    </g>
    <g stroke-width="0.1" font-family="'Lucida Sans Unicode'" stroke-linecap="butt">
      <text xml:space="preserve" x="499" y="76" clip-path="url(#clipPath8)" stroke="none">out01</text>
      <rect x="478" y="147" clip-path="url(#clipPath9)" fill="rgb(39,76,114)" width="20" height="23" stroke="none" />
      <rect x="478" y="147" clip-path="url(#clipPath9)" fill="none" width="19" height="22" stroke="rgb(39,76,114)" />
      <text xml:space="preserve" x="499" y="161" clip-path="url(#clipPath10)" stroke="none">out02</text>
      <rect x="478" y="227" clip-path="url(#clipPath11)" fill="rgb(39,76,114)" width="20" height="19" stroke="none" />
      <rect x="478" y="227" clip-path="url(#clipPath11)" fill="none" width="19" height="18" stroke="rgb(39,76,114)" />
      <text xml:space="preserve" x="499" y="241" clip-path="url(#clipPath12)" stroke="none">out03</text>
      <rect x="478" y="298" clip-path="url(#clipPath13)" fill="rgb(39,76,114)" width="20" height="20" stroke="none" />
      <rect x="478" y="298" clip-path="url(#clipPath13)" fill="none" width="19" height="19" stroke="rgb(39,76,114)" />
      <text xml:space="preserve" x="499" y="312" clip-path="url(#clipPath14)" stroke="none">out04</text>
      <rect x="478" y="103" clip-path="url(#clipPath15)" fill="rgb(194,239,255)" width="20" height="23" stroke="none" />
      <rect x="478" y="103" clip-path="url(#clipPath15)" fill="none" width="19" height="22" stroke="rgb(194,239,255)" />
      <text xml:space="preserve" x="499" y="117" clip-path="url(#clipPath16)" stroke="none">in01</text>
      <rect x="478" y="189" clip-path="url(#clipPath17)" fill="rgb(194,239,255)" width="20" height="21" stroke="none" />
      <rect x="478" y="189" clip-path="url(#clipPath17)" fill="none" width="19" height="20" stroke="rgb(194,239,255)" />
      <text xml:space="preserve" x="499" y="203" clip-path="url(#clipPath18)" stroke="none">in02</text>
      <rect x="478" y="261" clip-path="url(#clipPath19)" fill="rgb(194,239,255)" width="20" height="21" stroke="none" />
      <rect x="478" y="261" clip-path="url(#clipPath19)" fill="none" width="19" height="20" stroke="rgb(194,239,255)" />
      <text xml:space="preserve" x="499" y="275" clip-path="url(#clipPath20)" stroke="none">in03</text>
      <rect x="478" y="332" clip-path="url(#clipPath21)" fill="rgb(194,239,255)" width="20" height="22" stroke="none" />
      <rect x="478" y="332" clip-path="url(#clipPath21)" fill="none" width="19" height="21" stroke="rgb(194,239,255)" />
      <text xml:space="preserve" x="499" y="346" clip-path="url(#clipPath22)" stroke="none">in04</text>
      <line clip-path="url(#clipPath23)" fill="none" x1="478" x2="45" y1="62" y2="62" stroke="rgb(136,136,136)" stroke-width="2.1" />
      <text x="189" y="58" clip-path="url(#clipPath24)" stroke="none" stroke-width="2.1" xml:space="preserve">oeLogin("bill","password")</text>
      <line clip-path="url(#clipPath25)" fill="none" x1="52" x2="45" y1="59" y2="62" stroke="rgb(136,136,136)" stroke-width="2.1" />
      <line clip-path="url(#clipPath25)" fill="none" x1="45" x2="52" y1="62" y2="65" stroke="rgb(136,136,136)" stroke-width="2.1" />
      <line clip-path="url(#clipPath23)" fill="none" x1="478" x2="45" y1="147" y2="147" stroke="rgb(136,136,136)" stroke-width="2.1" />
      <text x="182" y="143" clip-path="url(#clipPath26)" stroke="none" stroke-width="2.1" xml:space="preserve">oeUpdateBio("bill","12345")</text>
      <line clip-path="url(#clipPath27)" fill="none" x1="52" x2="45" y1="144" y2="147" stroke="rgb(136,136,136)" stroke-width="2.1" />
      <line clip-path="url(#clipPath27)" fill="none" x1="45" x2="52" y1="147" y2="150" stroke="rgb(136,136,136)" stroke-width="2.1" />
      <line clip-path="url(#clipPath23)" fill="none" x1="478" x2="45" y1="227" y2="227" stroke="rgb(136,136,136)" stroke-width="2.1" />
      <text x="231" y="223" clip-path="url(#clipPath28)" stroke="none" stroke-width="2.1" xml:space="preserve">oeLogout()</text>
      <line clip-path="url(#clipPath29)" fill="none" x1="52" x2="45" y1="224" y2="227" stroke="rgb(136,136,136)" stroke-width="2.1" />
      <line clip-path="url(#clipPath29)" fill="none" x1="45" x2="52" y1="227" y2="230" stroke="rgb(136,136,136)" stroke-width="2.1" />
      <line clip-path="url(#clipPath23)" fill="none" x1="478" x2="45" y1="298" y2="298" stroke="rgb(136,136,136)" stroke-width="2.1" />
      <text x="188" y="294" clip-path="url(#clipPath30)" stroke="none" stroke-width="2.1" xml:space="preserve">oeBioLogin("bill","12345")</text>
      <line clip-path="url(#clipPath31)" fill="none" x1="52" x2="45" y1="295" y2="298" stroke="rgb(136,136,136)" stroke-width="2.1" />
      <line clip-path="url(#clipPath31)" fill="none" x1="45" x2="52" y1="298" y2="301" stroke="rgb(136,136,136)" stroke-width="2.1" />
    </g>
    <g stroke-linecap="butt" fill="rgb(136,136,136)" font-family="'Lucida Sans Unicode'" stroke-dasharray="5,5" stroke="rgb(136,136,136)" stroke-width="2.1">
      <line clip-path="url(#clipPath23)" fill="none" x1="478" x2="45" y1="103" y2="103" />
      <text x="144" y="99" clip-path="url(#clipPath32)" fill="black" stroke="none" xml:space="preserve">ieMessage(You are logged ! Welcome ...)</text>
      <line clip-path="url(#clipPath33)" fill="none" x1="471" x2="478" y1="106" y2="103" stroke-dasharray="none" />
      <line clip-path="url(#clipPath33)" fill="none" x1="478" x2="471" y1="103" y2="100" stroke-dasharray="none" />
      <line clip-path="url(#clipPath23)" fill="none" x1="478" x2="45" y1="189" y2="189" />
      <text x="124" y="185" clip-path="url(#clipPath34)" fill="black" stroke="none" xml:space="preserve">ieMessage(Your biometric information updated)</text>
      <line clip-path="url(#clipPath35)" fill="none" x1="471" x2="478" y1="192" y2="189" stroke-dasharray="none" />
      <line clip-path="url(#clipPath35)" fill="none" x1="478" x2="471" y1="189" y2="186" stroke-dasharray="none" />
      <line clip-path="url(#clipPath23)" fill="none" x1="478" x2="45" y1="261" y2="261" />
      <text x="131" y="257" clip-path="url(#clipPath36)" fill="black" stroke="none" xml:space="preserve">ieMessage(You are logged out ! Good Bye ...)</text>
      <line clip-path="url(#clipPath37)" fill="none" x1="471" x2="478" y1="264" y2="261" stroke-dasharray="none" />
      <line clip-path="url(#clipPath37)" fill="none" x1="478" x2="471" y1="261" y2="258" stroke-dasharray="none" />
      <line clip-path="url(#clipPath23)" fill="none" x1="478" x2="45" y1="332" y2="332" />
      <text x="144" y="328" clip-path="url(#clipPath38)" fill="black" stroke="none" xml:space="preserve">ieMessage(You are logged ! Welcome ...)</text>
      <line clip-path="url(#clipPath39)" fill="none" x1="471" x2="478" y1="335" y2="332" stroke-dasharray="none" />
      <line clip-path="url(#clipPath39)" fill="none" x1="478" x2="471" y1="332" y2="329" stroke-dasharray="none" />
    </g>
  </g>
</svg>

