<?xml version="1.0" encoding="UTF-8"?>
<svg xmlns="http://www.w3.org/2000/svg" xmlns:xlink="http://www.w3.org/1999/xlink" stroke-dasharray="none" shape-rendering="auto" font-family="'Dialog'" width="453" text-rendering="auto" fill-opacity="1" contentScriptType="text/ecmascript" color-interpolation="auto" color-rendering="auto" preserveAspectRatio="xMidYMid meet" font-size="12" viewBox="0 0 453 610" fill="black" stroke="black" image-rendering="auto" stroke-miterlimit="10" zoomAndPan="magnify" version="1.0" stroke-linecap="square" stroke-linejoin="miter" contentStyleType="text/css" font-style="normal" height="610" stroke-width="1" stroke-dashoffset="0" font-weight="normal" stroke-opacity="1">
  <!--Generated by the Batik Graphics2D SVG Generator-->
  <defs id="genericDefs" />
  <g>
    <defs id="defs1">
      <clipPath clipPathUnits="userSpaceOnUse" id="clipPath1">
        <path d="M125 9 L197 9 L197 41 L125 41 L125 9 Z" />
      </clipPath>
      <clipPath clipPathUnits="userSpaceOnUse" id="clipPath2">
        <path d="M125 9 L201 9 L201 41 L125 41 L125 9 Z" />
      </clipPath>
      <clipPath clipPathUnits="userSpaceOnUse" id="clipPath3">
        <path d="M155 39 L167 39 L167 601 L155 601 L155 39 Z" />
      </clipPath>
      <clipPath clipPathUnits="userSpaceOnUse" id="clipPath4">
        <path d="M225 9 L377 9 L377 61 L225 61 L225 9 Z" />
      </clipPath>
      <clipPath clipPathUnits="userSpaceOnUse" id="clipPath5">
        <path d="M225 9 L380 9 L380 61 L225 61 L225 9 Z" />
      </clipPath>
      <clipPath clipPathUnits="userSpaceOnUse" id="clipPath6">
        <path d="M225 9 L379 9 L379 61 L225 61 L225 9 Z" />
      </clipPath>
      <clipPath clipPathUnits="userSpaceOnUse" id="clipPath7">
        <path d="M225 9 L381 9 L381 61 L225 61 L225 9 Z" />
      </clipPath>
      <clipPath clipPathUnits="userSpaceOnUse" id="clipPath8">
        <path d="M295 59 L307 59 L307 601 L295 601 L295 59 Z" />
      </clipPath>
      <clipPath clipPathUnits="userSpaceOnUse" id="clipPath9">
        <path d="M290 89 L312 89 L312 131 L290 131 L290 89 Z" />
      </clipPath>
      <clipPath clipPathUnits="userSpaceOnUse" id="clipPath10">
        <path d="M311 89 L365 89 L365 116 L311 116 L311 89 Z" />
      </clipPath>
      <clipPath clipPathUnits="userSpaceOnUse" id="clipPath11">
        <path d="M290 209 L312 209 L312 251 L290 251 L290 209 Z" />
      </clipPath>
      <clipPath clipPathUnits="userSpaceOnUse" id="clipPath12">
        <path d="M311 209 L365 209 L365 236 L311 236 L311 209 Z" />
      </clipPath>
      <clipPath clipPathUnits="userSpaceOnUse" id="clipPath13">
        <path d="M290 329 L312 329 L312 371 L290 371 L290 329 Z" />
      </clipPath>
      <clipPath clipPathUnits="userSpaceOnUse" id="clipPath14">
        <path d="M311 329 L365 329 L365 356 L311 356 L311 329 Z" />
      </clipPath>
      <clipPath clipPathUnits="userSpaceOnUse" id="clipPath15">
        <path d="M290 449 L312 449 L312 491 L290 491 L290 449 Z" />
      </clipPath>
      <clipPath clipPathUnits="userSpaceOnUse" id="clipPath16">
        <path d="M311 449 L365 449 L365 476 L311 476 L311 449 Z" />
      </clipPath>
      <clipPath clipPathUnits="userSpaceOnUse" id="clipPath17">
        <path d="M290 149 L312 149 L312 191 L290 191 L290 149 Z" />
      </clipPath>
      <clipPath clipPathUnits="userSpaceOnUse" id="clipPath18">
        <path d="M311 149 L353 149 L353 176 L311 176 L311 149 Z" />
      </clipPath>
      <clipPath clipPathUnits="userSpaceOnUse" id="clipPath19">
        <path d="M290 269 L312 269 L312 311 L290 311 L290 269 Z" />
      </clipPath>
      <clipPath clipPathUnits="userSpaceOnUse" id="clipPath20">
        <path d="M311 269 L353 269 L353 296 L311 296 L311 269 Z" />
      </clipPath>
      <clipPath clipPathUnits="userSpaceOnUse" id="clipPath21">
        <path d="M290 389 L312 389 L312 431 L290 431 L290 389 Z" />
      </clipPath>
      <clipPath clipPathUnits="userSpaceOnUse" id="clipPath22">
        <path d="M311 389 L353 389 L353 416 L311 416 L311 389 Z" />
      </clipPath>
      <clipPath clipPathUnits="userSpaceOnUse" id="clipPath23">
        <path d="M290 509 L312 509 L312 551 L290 551 L290 509 Z" />
      </clipPath>
      <clipPath clipPathUnits="userSpaceOnUse" id="clipPath24">
        <path d="M311 509 L353 509 L353 536 L311 536 L311 509 Z" />
      </clipPath>
      <clipPath clipPathUnits="userSpaceOnUse" id="clipPath25">
        <path d="M-1 -1 L454 -1 L454 611 L-1 611 L-1 -1 Z" />
      </clipPath>
      <clipPath clipPathUnits="userSpaceOnUse" id="clipPath26">
        <path d="M116 67 L340 67 L340 94 L116 94 L116 67 Z" />
      </clipPath>
      <clipPath clipPathUnits="userSpaceOnUse" id="clipPath27">
        <path d="M159 85 L171 85 L171 96 L159 96 L159 85 Z" />
      </clipPath>
      <clipPath clipPathUnits="userSpaceOnUse" id="clipPath28">
        <path d="M145 187 L312 187 L312 214 L145 214 L145 187 Z" />
      </clipPath>
      <clipPath clipPathUnits="userSpaceOnUse" id="clipPath29">
        <path d="M159 205 L171 205 L171 216 L159 216 L159 205 Z" />
      </clipPath>
      <clipPath clipPathUnits="userSpaceOnUse" id="clipPath30">
        <path d="M179 307 L277 307 L277 334 L179 334 L179 307 Z" />
      </clipPath>
      <clipPath clipPathUnits="userSpaceOnUse" id="clipPath31">
        <path d="M159 325 L171 325 L171 336 L159 336 L159 325 Z" />
      </clipPath>
      <clipPath clipPathUnits="userSpaceOnUse" id="clipPath32">
        <path d="M152 427 L305 427 L305 454 L152 454 L152 427 Z" />
      </clipPath>
      <clipPath clipPathUnits="userSpaceOnUse" id="clipPath33">
        <path d="M159 445 L171 445 L171 456 L159 456 L159 445 Z" />
      </clipPath>
      <clipPath clipPathUnits="userSpaceOnUse" id="clipPath34">
        <path d="M55 127 L402 127 L402 154 L55 154 L55 127 Z" />
      </clipPath>
      <clipPath clipPathUnits="userSpaceOnUse" id="clipPath35">
        <path d="M282 145 L294 145 L294 156 L282 156 L282 145 Z" />
      </clipPath>
      <clipPath clipPathUnits="userSpaceOnUse" id="clipPath36">
        <path d="M23 247 L434 247 L434 274 L23 274 L23 247 Z" />
      </clipPath>
      <clipPath clipPathUnits="userSpaceOnUse" id="clipPath37">
        <path d="M282 265 L294 265 L294 276 L282 276 L282 265 Z" />
      </clipPath>
      <clipPath clipPathUnits="userSpaceOnUse" id="clipPath38">
        <path d="M37 367 L419 367 L419 394 L37 394 L37 367 Z" />
      </clipPath>
      <clipPath clipPathUnits="userSpaceOnUse" id="clipPath39">
        <path d="M282 385 L294 385 L294 396 L282 396 L282 385 Z" />
      </clipPath>
      <clipPath clipPathUnits="userSpaceOnUse" id="clipPath40">
        <path d="M55 487 L402 487 L402 514 L55 514 L55 487 Z" />
      </clipPath>
      <clipPath clipPathUnits="userSpaceOnUse" id="clipPath41">
        <path d="M282 505 L294 505 L294 516 L282 516 L282 505 Z" />
      </clipPath>
    </defs>
    <g fill="rgb(238,201,142)" font-family="'Segoe UI'" stroke-linejoin="round" stroke="rgb(238,201,142)" stroke-width="0" stroke-miterlimit="0">
      <rect x="126" y="10" clip-path="url(#clipPath1)" width="70" height="30" stroke="none" />
    </g>
    <g stroke-width="0.1" font-family="'Segoe UI'" stroke-linecap="butt">
      <rect x="126" y="10" clip-path="url(#clipPath1)" fill="none" width="69" height="29" />
      <text x="131" font-size="19" y="33" clip-path="url(#clipPath2)" stroke="none" xml:space="preserve">System</text>
      <line clip-path="url(#clipPath3)" fill="none" x1="160" x2="160" y1="40" y2="600" stroke-dasharray="10,10" stroke-width="1.1" />
    </g>
    <g stroke-linecap="butt" fill="rgb(255,245,181)" font-family="'Segoe UI'" stroke-dasharray="10,10" stroke="rgb(255,245,181)" stroke-width="1.1">
      <rect x="226" y="10" clip-path="url(#clipPath4)" width="150" height="50" stroke="none" />
    </g>
    <g stroke-width="0.1" font-family="'Segoe UI'" stroke-linecap="butt">
      <rect x="226" y="10" clip-path="url(#clipPath4)" fill="none" width="149" height="49" />
      <text x="287" font-size="19" y="19" clip-path="url(#clipPath5)" stroke="none" xml:space="preserve">bill</text>
      <text x="296" font-size="19" y="44" clip-path="url(#clipPath6)" stroke="none" xml:space="preserve">: </text>
      <text x="229" font-size="19" y="69" clip-path="url(#clipPath7)" stroke="none" xml:space="preserve">actAuthenticated</text>
      <line clip-path="url(#clipPath8)" fill="none" x1="300" x2="300" y1="60" y2="600" stroke-dasharray="10,10" stroke-width="1.1" />
    </g>
    <g stroke-linecap="butt" fill="rgb(39,76,114)" font-family="'Segoe UI'" stroke-dasharray="10,10" stroke="rgb(39,76,114)" stroke-width="1.1">
      <rect x="291" y="90" clip-path="url(#clipPath9)" width="20" height="40" stroke="none" />
      <rect x="291" y="90" clip-path="url(#clipPath9)" fill="none" width="19" stroke-dasharray="none" height="39" stroke-width="0.1" />
    </g>
    <g stroke-width="0.1" font-size="19" font-family="'Segoe UI'" stroke-linecap="butt">
      <text xml:space="preserve" x="312" y="111" clip-path="url(#clipPath10)" stroke="none">out01</text>
      <rect x="291" y="210" clip-path="url(#clipPath11)" fill="rgb(39,76,114)" width="20" height="40" stroke="none" />
      <rect x="291" y="210" clip-path="url(#clipPath11)" fill="none" width="19" height="39" stroke="rgb(39,76,114)" />
      <text xml:space="preserve" x="312" y="231" clip-path="url(#clipPath12)" stroke="none">out02</text>
      <rect x="291" y="330" clip-path="url(#clipPath13)" fill="rgb(39,76,114)" width="20" height="40" stroke="none" />
      <rect x="291" y="330" clip-path="url(#clipPath13)" fill="none" width="19" height="39" stroke="rgb(39,76,114)" />
      <text xml:space="preserve" x="312" y="351" clip-path="url(#clipPath14)" stroke="none">out03</text>
      <rect x="291" y="450" clip-path="url(#clipPath15)" fill="rgb(39,76,114)" width="20" height="40" stroke="none" />
      <rect x="291" y="450" clip-path="url(#clipPath15)" fill="none" width="19" height="39" stroke="rgb(39,76,114)" />
      <text xml:space="preserve" x="312" y="471" clip-path="url(#clipPath16)" stroke="none">out04</text>
      <rect x="291" y="150" clip-path="url(#clipPath17)" fill="rgb(194,239,255)" width="20" height="40" stroke="none" />
      <rect x="291" y="150" clip-path="url(#clipPath17)" fill="none" width="19" height="39" stroke="rgb(194,239,255)" />
      <text xml:space="preserve" x="312" y="171" clip-path="url(#clipPath18)" stroke="none">in01</text>
      <rect x="291" y="270" clip-path="url(#clipPath19)" fill="rgb(194,239,255)" width="20" height="40" stroke="none" />
      <rect x="291" y="270" clip-path="url(#clipPath19)" fill="none" width="19" height="39" stroke="rgb(194,239,255)" />
      <text xml:space="preserve" x="312" y="291" clip-path="url(#clipPath20)" stroke="none">in02</text>
      <rect x="291" y="390" clip-path="url(#clipPath21)" fill="rgb(194,239,255)" width="20" height="40" stroke="none" />
      <rect x="291" y="390" clip-path="url(#clipPath21)" fill="none" width="19" height="39" stroke="rgb(194,239,255)" />
      <text xml:space="preserve" x="312" y="411" clip-path="url(#clipPath22)" stroke="none">in03</text>
      <rect x="291" y="510" clip-path="url(#clipPath23)" fill="rgb(194,239,255)" width="20" height="40" stroke="none" />
      <rect x="291" y="510" clip-path="url(#clipPath23)" fill="none" width="19" height="39" stroke="rgb(194,239,255)" />
      <text xml:space="preserve" x="312" y="531" clip-path="url(#clipPath24)" stroke="none">in04</text>
      <line clip-path="url(#clipPath25)" fill="none" x1="291" x2="161" y1="90" y2="90" stroke="rgb(136,136,136)" stroke-width="2.1" />
      <text x="117" y="89" clip-path="url(#clipPath26)" stroke="none" stroke-width="2.1" xml:space="preserve">oeLogin("bill","password")</text>
      <line clip-path="url(#clipPath27)" fill="none" x1="168" x2="161" y1="87" y2="90" stroke="rgb(136,136,136)" stroke-width="2.1" />
      <line clip-path="url(#clipPath27)" fill="none" x1="161" x2="168" y1="90" y2="93" stroke="rgb(136,136,136)" stroke-width="2.1" />
      <line clip-path="url(#clipPath25)" fill="none" x1="291" x2="161" y1="210" y2="210" stroke="rgb(136,136,136)" stroke-width="2.1" />
      <text x="146" y="209" clip-path="url(#clipPath28)" stroke="none" stroke-width="2.1" xml:space="preserve">oeUpdateBio("bill")</text>
      <line clip-path="url(#clipPath29)" fill="none" x1="168" x2="161" y1="207" y2="210" stroke="rgb(136,136,136)" stroke-width="2.1" />
      <line clip-path="url(#clipPath29)" fill="none" x1="161" x2="168" y1="210" y2="213" stroke="rgb(136,136,136)" stroke-width="2.1" />
      <line clip-path="url(#clipPath25)" fill="none" x1="291" x2="161" y1="330" y2="330" stroke="rgb(136,136,136)" stroke-width="2.1" />
      <text x="180" y="329" clip-path="url(#clipPath30)" stroke="none" stroke-width="2.1" xml:space="preserve">oeLogout()</text>
      <line clip-path="url(#clipPath31)" fill="none" x1="168" x2="161" y1="327" y2="330" stroke="rgb(136,136,136)" stroke-width="2.1" />
      <line clip-path="url(#clipPath31)" fill="none" x1="161" x2="168" y1="330" y2="333" stroke="rgb(136,136,136)" stroke-width="2.1" />
      <line clip-path="url(#clipPath25)" fill="none" x1="291" x2="161" y1="450" y2="450" stroke="rgb(136,136,136)" stroke-width="2.1" />
      <text x="153" y="449" clip-path="url(#clipPath32)" stroke="none" stroke-width="2.1" xml:space="preserve">oeBioLogin("bill")</text>
      <line clip-path="url(#clipPath33)" fill="none" x1="168" x2="161" y1="447" y2="450" stroke="rgb(136,136,136)" stroke-width="2.1" />
      <line clip-path="url(#clipPath33)" fill="none" x1="161" x2="168" y1="450" y2="453" stroke="rgb(136,136,136)" stroke-width="2.1" />
    </g>
    <g stroke-linecap="butt" font-size="19" fill="rgb(136,136,136)" font-family="'Segoe UI'" stroke-dasharray="5,5" stroke="rgb(136,136,136)" stroke-width="2.1">
      <line clip-path="url(#clipPath25)" fill="none" x1="291" x2="161" y1="150" y2="150" />
      <text x="56" y="149" clip-path="url(#clipPath34)" fill="black" stroke="none" xml:space="preserve">ieMessage(You are logged ! Welcome ...)</text>
      <line clip-path="url(#clipPath35)" fill="none" x1="284" x2="291" y1="153" y2="150" stroke-dasharray="none" />
      <line clip-path="url(#clipPath35)" fill="none" x1="291" x2="284" y1="150" y2="147" stroke-dasharray="none" />
      <line clip-path="url(#clipPath25)" fill="none" x1="291" x2="161" y1="270" y2="270" />
      <text x="24" y="269" clip-path="url(#clipPath36)" fill="black" stroke="none" xml:space="preserve">ieMessage(Your biometric information updated)</text>
      <line clip-path="url(#clipPath37)" fill="none" x1="284" x2="291" y1="273" y2="270" stroke-dasharray="none" />
      <line clip-path="url(#clipPath37)" fill="none" x1="291" x2="284" y1="270" y2="267" stroke-dasharray="none" />
      <line clip-path="url(#clipPath25)" fill="none" x1="291" x2="161" y1="390" y2="390" />
      <text x="38" y="389" clip-path="url(#clipPath38)" fill="black" stroke="none" xml:space="preserve">ieMessage(You are logged out ! Good Bye ...)</text>
      <line clip-path="url(#clipPath39)" fill="none" x1="284" x2="291" y1="393" y2="390" stroke-dasharray="none" />
      <line clip-path="url(#clipPath39)" fill="none" x1="291" x2="284" y1="390" y2="387" stroke-dasharray="none" />
      <line clip-path="url(#clipPath25)" fill="none" x1="291" x2="161" y1="510" y2="510" />
      <text x="56" y="509" clip-path="url(#clipPath40)" fill="black" stroke="none" xml:space="preserve">ieMessage(You are logged ! Welcome ...)</text>
      <line clip-path="url(#clipPath41)" fill="none" x1="284" x2="291" y1="513" y2="510" stroke-dasharray="none" />
      <line clip-path="url(#clipPath41)" fill="none" x1="291" x2="284" y1="510" y2="507" stroke-dasharray="none" />
    </g>
  </g>
</svg>

